<?xml version="1.0" encoding="UTF-8" standalone="no"?>
<svg
   xmlns:dc="http://purl.org/dc/elements/1.1/"
   xmlns:cc="http://creativecommons.org/ns#"
   xmlns:rdf="http://www.w3.org/1999/02/22-rdf-syntax-ns#"
   xmlns:svg="http://www.w3.org/2000/svg"
   xmlns="http://www.w3.org/2000/svg"
   xmlns:sodipodi="http://sodipodi.sourceforge.net/DTD/sodipodi-0.dtd"
   xmlns:inkscape="http://www.inkscape.org/namespaces/inkscape"
   width="697.31494"
   height="1352.2749"
   version="1.1"
   id="svg144"
   sodipodi:docname="Sidepanel template.svg"
   inkscape:version="0.92.4 (5da689c313, 2019-01-14)">
  <metadata
     id="metadata148">
    <rdf:RDF>
      <cc:Work
         rdf:about="">
        <dc:format>image/svg+xml</dc:format>
        <dc:type
           rdf:resource="http://purl.org/dc/dcmitype/StillImage" />
        <dc:title></dc:title>
      </cc:Work>
    </rdf:RDF>
  </metadata>
  <sodipodi:namedview
     pagecolor="#ffffff"
     bordercolor="#666666"
     borderopacity="1"
     objecttolerance="10"
     gridtolerance="10"
     guidetolerance="10"
     inkscape:pageopacity="0"
     inkscape:pageshadow="2"
     inkscape:window-width="1920"
     inkscape:window-height="1017"
     id="namedview146"
     showgrid="false"
     fit-margin-top="8"
     fit-margin-left="8"
     fit-margin-right="8"
     fit-margin-bottom="8"
     inkscape:zoom="0.59465222"
     inkscape:cx="301.19205"
     inkscape:cy="696.91086"
     inkscape:window-x="-8"
     inkscape:window-y="-8"
     inkscape:window-maximized="1"
     inkscape:current-layer="g142" />
  <desc
     id="desc2">C:\Users\lvandenbeukel\Dropbox\Electronica\Project\CNC V4\Sidepanel template.dxf - scale = 1.000000, origin = (0.000000, 0.000000), method = manual</desc>
  <defs
     id="defs16">
    <marker
       id="DistanceX"
       orient="auto"
       refX="0"
       refY="0"
       style="overflow:visible">
      <path
         d="M 3,-3 -3,3 M 0,-5 V 5"
         style="stroke:#000000;stroke-width:0.5"
         id="path4"
         inkscape:connector-curvature="0" />
    </marker>
    <pattern
       height="8"
       id="Hatch"
       patternUnits="userSpaceOnUse"
       width="8"
       x="0"
       y="0">
      <path
         d="M8 4 l-4,4"
         linecap="square"
         stroke="#000000"
         stroke-width="0.25"
         id="path7" />
      <path
         d="M6 2 l-4,4"
         linecap="square"
         stroke="#000000"
         stroke-width="0.25"
         id="path9" />
      <path
         d="M4 0 l-4,4"
         linecap="square"
         stroke="#000000"
         stroke-width="0.25"
         id="path11" />
    </pattern>
    <symbol
       id="*MODEL_SPACE" />
    <symbol
       id="*PAPER_SPACE" />
  </defs>
  <g
     inkscape:groupmode="layer"
     inkscape:label="0"
     id="g142"
     transform="translate(-15.193917,-258.47815)">
    <path
       d="m 477.23722,1023.5582 -26.45669,26.4567 H 276.92226 l -26.45669,-26.4567 V 293.43484 l 26.45669,-26.45669 h 173.85827 l 26.45669,26.45669 z"
       style="fill:none;stroke:#000000"
       id="path18"
       inkscape:connector-curvature="0" />
    <path
       d="M 417.97012,936.6291 363.8514,882.51038 309.73267,936.6291 363.8514,990.74783 Z"
       style="fill:none;stroke:#000000"
       id="path20"
       inkscape:connector-curvature="0" />
    <path
       d="m 363.8514,434.4827 54.11872,-54.11872 -54.11872,-54.11873 -54.11873,54.11873 z"
       style="fill:none;stroke:#000000"
       id="path22"
       inkscape:connector-curvature="0" />
    <path
       d="m 299.59943,861.03855 a 11.338585,11.338585 0 1 0 -22.67717,0 11.338585,11.338585 0 1 0 22.67717,0 z"
       style="fill:none;stroke:#000000"
       id="path24"
       inkscape:connector-curvature="0" />
    <path
       d="m 299.59943,455.95453 a 11.338585,11.338585 0 1 0 -22.67717,0 11.338585,11.338585 0 1 0 22.67717,0 z"
       style="fill:none;stroke:#000000"
       id="path26"
       inkscape:connector-curvature="0" />
    <path
       d="m 450.78053,861.03855 a 11.338585,11.338585 0 1 0 -22.67717,0 11.338585,11.338585 0 1 0 22.67717,0 z"
       style="fill:none;stroke:#000000"
       id="path28"
       inkscape:connector-curvature="0" />
    <path
       d="m 450.78053,455.95453 a 11.338585,11.338585 0 1 0 -22.67717,0 11.338585,11.338585 0 1 0 22.67717,0 z"
       style="fill:none;stroke:#000000"
       id="path30"
       inkscape:connector-curvature="0" />
    <path
       d="m 450.78053,1012.2197 a 11.338585,11.338585 0 1 0 -22.67717,0 11.338585,11.338585 0 1 0 22.67717,0 z"
       style="fill:none;stroke:#000000"
       id="path32"
       inkscape:connector-curvature="0" />
    <path
       d="m 299.59943,1012.2197 a 11.338585,11.338585 0 1 0 -22.67717,0 11.338585,11.338585 0 1 0 22.67717,0 z"
       style="fill:none;stroke:#000000"
       id="path34"
       inkscape:connector-curvature="0" />
    <path
       d="m 450.78053,304.77342 a 11.338585,11.338585 0 1 0 -22.67717,0 11.338585,11.338585 0 1 0 22.67717,0 z"
       style="fill:none;stroke:#000000"
       id="path36"
       inkscape:connector-curvature="0" />
    <path
       d="m 299.59943,304.77342 a 11.338585,11.338585 0 1 0 -22.67717,0 11.338585,11.338585 0 1 0 22.67717,0 z"
       style="fill:none;stroke:#000000"
       id="path38"
       inkscape:connector-curvature="0" />
    <path
       d="m 133.30022,1560.6782 a 15.118111,15.118111 0 1 0 -30.23622,0 15.118111,15.118111 0 1 0 30.23622,0 z"
       style="fill:none;stroke:#000000"
       id="path40"
       inkscape:connector-curvature="0" />
    <path
       d="m 133.30022,1228.0798 a 15.118111,15.118111 0 1 0 -30.23622,0 15.118111,15.118111 0 1 0 30.23622,0 z"
       style="fill:none;stroke:#000000"
       id="path42"
       inkscape:connector-curvature="0" />
    <path
       d="m 378.96951,1228.0798 a 15.11811,15.11811 0 1 0 -30.23622,0 15.11811,15.11811 0 1 0 30.23622,0 z"
       style="fill:none;stroke:#000000"
       id="path44"
       inkscape:connector-curvature="0" />
    <path
       d="m 704.00888,1594.694 -7.55906,7.559 H 31.252972 l -7.559055,-7.559 v -75.5906 H 704.00888 Z"
       style="fill:none;stroke:#000000"
       id="path46"
       inkscape:connector-curvature="0" />
    <path
       d="m 624.6388,1560.6782 a 15.11811,15.11811 0 1 0 -30.23622,0 15.11811,15.11811 0 1 0 30.23622,0 z"
       style="fill:none;stroke:#000000"
       id="path48"
       inkscape:connector-curvature="0" />
    <path
       d="m 378.96951,1560.6782 a 15.11811,15.11811 0 1 0 -30.23622,0 15.11811,15.11811 0 1 0 30.23622,0 z"
       style="fill:none;stroke:#000000"
       id="path50"
       inkscape:connector-curvature="0" />
    <path
       d="m 133.30022,1560.6782 a 15.118111,15.118111 0 1 0 -30.23622,0 15.118111,15.118111 0 1 0 30.23622,0 z"
       style="fill:none;stroke:#000000"
       id="path52"
       inkscape:connector-curvature="0" />
    <path
       d="m 624.6388,1560.6782 a 15.11811,15.11811 0 1 0 -30.23622,0 15.11811,15.11811 0 1 0 30.23622,0 z"
       style="fill:none;stroke:#000000"
       id="path54"
       inkscape:connector-curvature="0" />
    <path
       d="m 23.693917,1194.0641 7.559055,-7.5591 H 696.44982 l 7.55906,7.5591 v 75.5905 H 23.693917 Z"
       style="fill:none;stroke:#000000"
       id="path56"
       inkscape:connector-curvature="0" />
    <path
       d="m 133.30022,1228.0798 a 15.118111,15.118111 0 1 0 -30.23622,0 15.118111,15.118111 0 1 0 30.23622,0 z"
       style="fill:none;stroke:#000000"
       id="path58"
       inkscape:connector-curvature="0" />
    <path
       d="m 378.96951,1228.0798 a 15.11811,15.11811 0 1 0 -30.23622,0 15.11811,15.11811 0 1 0 30.23622,0 z"
       style="fill:none;stroke:#000000"
       id="path60"
       inkscape:connector-curvature="0" />
    <path
       d="m 624.6388,1228.0798 a 15.11811,15.11811 0 1 0 -30.23622,0 15.11811,15.11811 0 1 0 30.23622,0 z"
       style="fill:none;stroke:#000000"
       id="path62"
       inkscape:connector-curvature="0" />
    <path
       d="m 477.23722,1023.5582 -26.45669,26.4567 H 276.92226 l -26.45669,-26.4567 V 293.43484 l 26.45669,-26.45669 h 173.85827 l 26.45669,26.45669 z"
       style="fill:none;stroke:#000000"
       id="path64"
       inkscape:connector-curvature="0" />
    <path
       d="m 299.59943,861.03855 a 11.338585,11.338585 0 1 0 -22.67717,0 11.338585,11.338585 0 1 0 22.67717,0 z"
       style="fill:none;stroke:#000000"
       id="path66"
       inkscape:connector-curvature="0" />
    <path
       d="m 299.59943,455.95453 a 11.338585,11.338585 0 1 0 -22.67717,0 11.338585,11.338585 0 1 0 22.67717,0 z"
       style="fill:none;stroke:#000000"
       id="path68"
       inkscape:connector-curvature="0" />
    <path
       d="m 450.78053,861.03855 a 11.338585,11.338585 0 1 0 -22.67717,0 11.338585,11.338585 0 1 0 22.67717,0 z"
       style="fill:none;stroke:#000000"
       id="path70"
       inkscape:connector-curvature="0" />
    <path
       d="m 450.78053,455.95453 a 11.338585,11.338585 0 1 0 -22.67717,0 11.338585,11.338585 0 1 0 22.67717,0 z"
       style="fill:none;stroke:#000000"
       id="path72"
       inkscape:connector-curvature="0" />
    <path
       d="m 450.78053,1012.2197 a 11.338585,11.338585 0 1 0 -22.67717,0 11.338585,11.338585 0 1 0 22.67717,0 z"
       style="fill:none;stroke:#000000"
       id="path74"
       inkscape:connector-curvature="0" />
    <path
       d="m 299.59943,1012.2197 a 11.338585,11.338585 0 1 0 -22.67717,0 11.338585,11.338585 0 1 0 22.67717,0 z"
       style="fill:none;stroke:#000000"
       id="path76"
       inkscape:connector-curvature="0" />
    <path
       d="m 450.78053,304.77342 a 11.338585,11.338585 0 1 0 -22.67717,0 11.338585,11.338585 0 1 0 22.67717,0 z"
       style="fill:none;stroke:#000000"
       id="path78"
       inkscape:connector-curvature="0" />
    <path
       d="m 299.59943,304.77342 a 11.338585,11.338585 0 1 0 -22.67717,0 11.338585,11.338585 0 1 0 22.67717,0 z"
       style="fill:none;stroke:#000000"
       id="path80"
       inkscape:connector-curvature="0" />
    <path
       d="M 417.97012,936.6291 363.8514,882.51038 309.73267,936.6291 363.8514,990.74783 Z"
       style="fill:none;stroke:#000000"
       id="path82"
       inkscape:connector-curvature="0" />
    <path
       d="m 363.8514,434.4827 54.11872,-54.11872 -54.11872,-54.11873 -54.11873,54.11873 z"
       style="fill:none;stroke:#000000"
       id="path84"
       inkscape:connector-curvature="0" />
    <path
       d="M 704.00888,266.97815 V 1194.0641 1602.253 H 23.693917 V 266.97815 H 276.92226 Z"
       style="fill:none;stroke:#000000"
       id="path86"
       inkscape:connector-curvature="0" />
    <path
       d="M 363.8514,882.51038 V 990.74783"
       style="fill:none;stroke:#000000"
       id="path88"
       inkscape:connector-curvature="0" />
    <path
       d="M 309.73267,936.6291 H 417.97012"
       style="fill:none;stroke:#000000"
       id="path90"
       inkscape:connector-curvature="0" />
    <path
       d="M 363.8514,326.24525 V 434.4827"
       style="fill:none;stroke:#000000"
       id="path92"
       inkscape:connector-curvature="0" />
    <path
       d="M 309.73267,380.36398 H 417.97012"
       style="fill:none;stroke:#000000"
       id="path94"
       inkscape:connector-curvature="0" />
    <path
       d="M 288.26085,304.77342 V 1012.2197"
       style="fill:none;stroke:#000000"
       id="path96"
       inkscape:connector-curvature="0" />
    <path
       d="m 288.26085,1012.2197 h 151.1811"
       style="fill:none;stroke:#000000"
       id="path98"
       inkscape:connector-curvature="0" />
    <path
       d="M 439.44195,1012.2197 V 304.77342"
       style="fill:none;stroke:#000000"
       id="path100"
       inkscape:connector-curvature="0" />
    <path
       d="M 439.44195,304.77342 H 288.26085"
       style="fill:none;stroke:#000000"
       id="path102"
       inkscape:connector-curvature="0" />
    <path
       d="m 288.26085,455.95453 h 151.1811"
       style="fill:none;stroke:#000000"
       id="path104"
       inkscape:connector-curvature="0" />
    <path
       d="m 288.26085,861.03855 h 151.1811"
       style="fill:none;stroke:#000000"
       id="path106"
       inkscape:connector-curvature="0" />
    <path
       d="M 288.26085,304.77342 V 293.43484"
       style="fill:none;stroke:#000000"
       id="path108"
       inkscape:connector-curvature="0" />
    <path
       d="M 288.26085,304.77342 H 276.92226"
       style="fill:none;stroke:#000000"
       id="path110"
       inkscape:connector-curvature="0" />
    <path
       d="M 439.44195,304.77342 V 293.43484"
       style="fill:none;stroke:#000000"
       id="path112"
       inkscape:connector-curvature="0" />
    <path
       d="m 439.44195,304.77342 h 11.33858"
       style="fill:none;stroke:#000000"
       id="path114"
       inkscape:connector-curvature="0" />
    <path
       d="m 439.44195,455.95453 h 11.33858"
       style="fill:none;stroke:#000000"
       id="path116"
       inkscape:connector-curvature="0" />
    <path
       d="M 288.26085,455.95453 H 276.92226"
       style="fill:none;stroke:#000000"
       id="path118"
       inkscape:connector-curvature="0" />
    <path
       d="M 288.26085,861.03855 H 276.92226"
       style="fill:none;stroke:#000000"
       id="path120"
       inkscape:connector-curvature="0" />
    <path
       d="m 439.44195,861.03855 h 11.33858"
       style="fill:none;stroke:#000000"
       id="path122"
       inkscape:connector-curvature="0" />
    <path
       d="m 439.44195,1012.2197 h 11.33858"
       style="fill:none;stroke:#000000"
       id="path124"
       inkscape:connector-curvature="0" />
    <path
       d="m 439.44195,1012.2197 v 11.3385"
       style="fill:none;stroke:#000000"
       id="path126"
       inkscape:connector-curvature="0" />
    <path
       d="M 288.26085,1012.2197 H 276.92226"
       style="fill:none;stroke:#000000"
       id="path128"
       inkscape:connector-curvature="0" />
    <path
       d="m 288.26085,1012.2197 v 11.3385"
       style="fill:none;stroke:#000000"
       id="path130"
       inkscape:connector-curvature="0" />
    <path
       d="M 103.064,1228.0798 H 624.6388"
       style="fill:none;stroke:#000000"
       id="path132"
       inkscape:connector-curvature="0" />
    <path
       d="m 609.52069,1212.9617 v 362.8346"
       style="fill:none;stroke:#000000"
       id="path134"
       inkscape:connector-curvature="0" />
    <path
       d="M 624.6388,1560.6782 H 103.064"
       style="fill:none;stroke:#000000"
       id="path136"
       inkscape:connector-curvature="0" />
    <path
       d="M 118.18211,1575.7963 V 1212.9617"
       style="fill:none;stroke:#000000"
       id="path138"
       inkscape:connector-curvature="0" />
    <path
       d="m 363.8514,1212.9617 v 362.8346"
       style="fill:none;stroke:#000000"
       id="path140"
       inkscape:connector-curvature="0" />
    <text
       xml:space="preserve"
       style="font-style:normal;font-weight:normal;font-size:42.66666794px;line-height:25px;font-family:sans-serif;letter-spacing:0px;word-spacing:0px;fill:#000000;fill-opacity:1;stroke:none"
       x="123.40292"
       y="1594.7001"
       id="text969"><tspan
         sodipodi:role="line"
         id="tspan967"
         x="123.40292"
         y="1594.7001"
         style="font-size:16px">(Drill the bottom 3 holes a little bigger to be able to adjust)</tspan></text>
    <text
       xml:space="preserve"
       style="font-style:normal;font-weight:normal;font-size:42.66666794px;line-height:25px;font-family:sans-serif;letter-spacing:0px;word-spacing:0px;fill:#000000;fill-opacity:1;stroke:none"
       x="400.29297"
       y="285.60876"
       id="text973"><tspan
         sodipodi:role="line"
         id="tspan971"
         x="400.29297"
         y="285.60876"><tspan
   style="font-size:16px"
   id="tspan975">6mm</tspan> </tspan></text>
    <text
       xml:space="preserve"
       style="font-style:normal;font-weight:normal;font-size:16px;line-height:25px;font-family:sans-serif;letter-spacing:0px;word-spacing:0px;fill:#000000;fill-opacity:1;stroke:none"
       x="566.56262"
       y="1204.8884"
       id="text979"><tspan
         sodipodi:role="line"
         id="tspan977"
         x="566.56262"
         y="1204.8884">8mm</tspan></text>
    <text
       xml:space="preserve"
       style="font-style:normal;font-weight:normal;font-size:16px;line-height:25px;font-family:sans-serif;letter-spacing:0px;word-spacing:0px;fill:#000000;fill-opacity:1;stroke:none"
       x="-50.174114"
       y="483.09253"
       id="text983"
       transform="rotate(-45.258374)"><tspan
         sodipodi:role="line"
         id="tspan981"
         x="-50.174114"
         y="483.09253">20.5 mm</tspan></text>
  </g>
</svg>
