  0
SECTION
  2
HEADER
  9
$ACADVER
  1
AC1014
  9
$HANDSEED
  5
FFFF
  9
$MEASUREMENT
 70
     1
  0
ENDSEC
  0
SECTION
  2
TABLES
  0
TABLE
  2
VPORT
  5
8
330
0
100
AcDbSymbolTable
 70
     4
  0
VPORT
  5
2E
330
8
100
AcDbSymbolTableRecord
100
AcDbViewportTableRecord
  2
*ACTIVE
 70
     0
 10
0.0
 20
0.0
 11
1.0
 21
1.0
 12
210.0
 22
148.5
 13
0.0
 23
0.0
 14
10.0
 24
10.0
 15
10.0
 25
10.0
 16
0.0
 26
0.0
 36
1.0
 17
0.0
 27
0.0
 37
0.0
 40
341.0
 41
1.24
 42
50.0
 43
0.0
 44
0.0
 50
0.0
 51
0.0
 71
     0
 72
   100
 73
     1
 74
     3
 75
     0
 76
     0
 77
     0
 78
     0
  0
ENDTAB
  0
TABLE
  2
LTYPE
  5
5
330
0
100
AcDbSymbolTable
 70
     1
  0
LTYPE
  5
14
330
5
100
AcDbSymbolTableRecord
100
AcDbLinetypeTableRecord
  2
BYBLOCK
 70
     0
  3

 72
    65
 73
     0
 40
0.0
  0
LTYPE
  5
15
330
5
100
AcDbSymbolTableRecord
100
AcDbLinetypeTableRecord
  2
BYLAYER
 70
     0
  3

 72
    65
 73
     0
 40
0.0
  0
LTYPE
  5
16
330
5
100
AcDbSymbolTableRecord
100
AcDbLinetypeTableRecord
  2
CONTINUOUS
 70
     0
  3
Solid line
 72
    65
 73
     0
 40
0.0
  0
ENDTAB
  0
TABLE
  2
LAYER
  5
2
100
AcDbSymbolTable
 70
1
  0
LAYER
  5
50
100
AcDbSymbolTableRecord
100
AcDbLayerTableRecord
  2
0
 70
0
  6
CONTINUOUS
  0
ENDTAB
  0
TABLE
  2
STYLE
  5
3
330
0
100
AcDbSymbolTable
 70
     1
  0
STYLE
  5
11
330
3
100
AcDbSymbolTableRecord
100
AcDbTextStyleTableRecord
  2
STANDARD
 70
     0
 40
0.0
 41
1.0
 50
0.0
 71
     0
 42
2.5
  3
txt
  4

  0
ENDTAB
  0
TABLE
  2
VIEW
  5
6
330
0
100
AcDbSymbolTable
 70
     0
  0
ENDTAB
  0
TABLE
  2
UCS
  5
7
330
0
100
AcDbSymbolTable
 70
     0
  0
ENDTAB
  0
TABLE
  2
APPID
  5
9
330
0
100
AcDbSymbolTable
 70
     2
  0
APPID
  5
12
330
9
100
AcDbSymbolTableRecord
100
AcDbRegAppTableRecord
  2
ACAD
 70
     0
  0
ENDTAB
  0
TABLE
  2
DIMSTYLE
  5
A
330
0
100
AcDbSymbolTable
 70
     1
  0
DIMSTYLE
105
27
330
A
100
AcDbSymbolTableRecord
100
AcDbDimStyleTableRecord
  2
ISO-25
 70
     0
  3

  4

  5

  6

  7

 40
1.0
 41
2.5
 42
0.625
 43
3.75
 44
1.25
 45
0.0
 46
0.0
 47
0.0
 48
0.0
140
2.5
141
2.5
142
0.0
143
0.03937007874016
144
1.0
145
0.0
146
1.0
147
0.625
 71
     0
 72
     0
 73
     0
 74
     0
 75
     0
 76
     0
 77
     1
 78
     8
170
     0
171
     3
172
     1
173
     0
174
     0
175
     0
176
     0
177
     0
178
     0
270
     2
271
     2
272
     2
273
     2
274
     3
340
11
275
     0
280
     0
281
     0
282
     0
283
     0
284
     8
285
     0
286
     0
287
     3
288
     0
  0
ENDTAB
  0
TABLE
  2
BLOCK_RECORD
  5
1
330
0
100
AcDbSymbolTable
 70
     1
  0
BLOCK_RECORD
  5
1F
330
1
100
AcDbSymbolTableRecord
100
AcDbBlockTableRecord
  2
*MODEL_SPACE
  0
BLOCK_RECORD
  5
1B
330
1
100
AcDbSymbolTableRecord
100
AcDbBlockTableRecord
  2
*PAPER_SPACE
  0
ENDTAB
  0
ENDSEC
  0
SECTION
  2
BLOCKS
  0
BLOCK
  5
20
330
1F
100
AcDbEntity
  8
0
100
AcDbBlockBegin
  2
*MODEL_SPACE
 70
     0
 10
0.0
 20
0.0
 30
0.0
  3
*MODEL_SPACE
  1

  0
ENDBLK
  5
21
330
1F
100
AcDbEntity
  8
0
100
AcDbBlockEnd
  0
BLOCK
  5
1C
330
1B
100
AcDbEntity
 67
     1
  8
0
100
AcDbBlockBegin
  2
*PAPER_SPACE
  1

  0
ENDBLK
  5
1D
330
1B
100
AcDbEntity
 67
     1
  8
0
100
AcDbBlockEnd
  0
ENDSEC
  0
SECTION
  2
ENTITIES
  0
LWPOLYLINE
  5
100
100
AcDbEntity
  8
0
 62
7
100
AcDbPolyline
 90
8
 70
1
 10
346.532477
 20
440.396137
 30
0.0
 10
326.689960
 20
420.553612
 30
0.0
 10
196.296257
 20
420.553612
 30
0.0
 10
176.453740
 20
440.396137
 30
0.0
 10
176.453740
 20
987.988657
 30
0.0
 10
196.296257
 20
1007.831175
 30
0.0
 10
326.689960
 20
1007.831175
 30
0.0
 10
346.532477
 20
987.988657
 30
0.0
  0
LWPOLYLINE
  5
101
100
AcDbEntity
  8
0
 62
7
100
AcDbPolyline
 90
4
 70
1
 10
302.082152
 20
505.592962
 30
0.0
 10
261.493112
 20
546.182002
 30
0.0
 10
220.904065
 20
505.592962
 30
0.0
 10
261.493112
 20
465.003915
 30
0.0
  0
SPLINE
  5
102
100
AcDbEntity
  8
0
 62
7
100
AcDbSpline
 70
8
 71
3
 72
8
 73
4
 74
0
 40
0
 40
0
 40
0
 40
0
 40
1
 40
1
 40
1
 40
1
 10
213.304135
 20
562.285875
 30
0.0
 10
213.304135
 20
565.324040
 30
0.0
 10
211.683293
 20
568.131420
 30
0.0
 10
209.052166
 20
569.650502
 30
0.0
  0
SPLINE
  5
103
100
AcDbEntity
  8
0
 62
7
100
AcDbSpline
 70
8
 71
3
 72
8
 73
4
 74
0
 40
0
 40
0
 40
0
 40
0
 40
1
 40
1
 40
1
 40
1
 10
209.052166
 20
569.650502
 30
0.0
 10
206.421038
 20
571.169585
 30
0.0
 10
203.179354
 20
571.169585
 30
0.0
 10
200.548226
 20
569.650502
 30
0.0
  0
SPLINE
  5
104
100
AcDbEntity
  8
0
 62
7
100
AcDbSpline
 70
8
 71
3
 72
8
 73
4
 74
0
 40
0
 40
0
 40
0
 40
0
 40
1
 40
1
 40
1
 40
1
 10
200.548226
 20
569.650502
 30
0.0
 10
197.917099
 20
568.131420
 30
0.0
 10
196.296257
 20
565.324040
 30
0.0
 10
196.296257
 20
562.285875
 30
0.0
  0
SPLINE
  5
105
100
AcDbEntity
  8
0
 62
7
100
AcDbSpline
 70
8
 71
3
 72
8
 73
4
 74
0
 40
0
 40
0
 40
0
 40
0
 40
1
 40
1
 40
1
 40
1
 10
196.296257
 20
562.285875
 30
0.0
 10
196.296257
 20
559.247710
 30
0.0
 10
197.917099
 20
556.440330
 30
0.0
 10
200.548226
 20
554.921248
 30
0.0
  0
SPLINE
  5
106
100
AcDbEntity
  8
0
 62
7
100
AcDbSpline
 70
8
 71
3
 72
8
 73
4
 74
0
 40
0
 40
0
 40
0
 40
0
 40
1
 40
1
 40
1
 40
1
 10
200.548226
 20
554.921248
 30
0.0
 10
203.179354
 20
553.402165
 30
0.0
 10
206.421038
 20
553.402165
 30
0.0
 10
209.052166
 20
554.921248
 30
0.0
  0
SPLINE
  5
107
100
AcDbEntity
  8
0
 62
7
100
AcDbSpline
 70
8
 71
3
 72
8
 73
4
 74
0
 40
0
 40
0
 40
0
 40
0
 40
1
 40
1
 40
1
 40
1
 10
209.052166
 20
554.921248
 30
0.0
 10
211.683293
 20
556.440330
 30
0.0
 10
213.304135
 20
559.247710
 30
0.0
 10
213.304135
 20
562.285875
 30
0.0
  0
LWPOLYLINE
  5
108
100
AcDbEntity
  8
0
 62
7
100
AcDbPolyline
 90
4
 70
1
 10
261.493112
 20
882.202762
 30
0.0
 10
302.082152
 20
922.791802
 30
0.0
 10
261.493112
 20
963.380850
 30
0.0
 10
220.904065
 20
922.791802
 30
0.0
  0
SPLINE
  5
109
100
AcDbEntity
  8
0
 62
7
100
AcDbSpline
 70
8
 71
3
 72
8
 73
4
 74
0
 40
0
 40
0
 40
0
 40
0
 40
1
 40
1
 40
1
 40
1
 10
213.304135
 20
866.098890
 30
0.0
 10
213.304135
 20
869.137055
 30
0.0
 10
211.683293
 20
871.944435
 30
0.0
 10
209.052166
 20
873.463517
 30
0.0
  0
SPLINE
  5
10a
100
AcDbEntity
  8
0
 62
7
100
AcDbSpline
 70
8
 71
3
 72
8
 73
4
 74
0
 40
0
 40
0
 40
0
 40
0
 40
1
 40
1
 40
1
 40
1
 10
209.052166
 20
873.463517
 30
0.0
 10
206.421038
 20
874.982600
 30
0.0
 10
203.179354
 20
874.982600
 30
0.0
 10
200.548226
 20
873.463517
 30
0.0
  0
SPLINE
  5
10b
100
AcDbEntity
  8
0
 62
7
100
AcDbSpline
 70
8
 71
3
 72
8
 73
4
 74
0
 40
0
 40
0
 40
0
 40
0
 40
1
 40
1
 40
1
 40
1
 10
200.548226
 20
873.463517
 30
0.0
 10
197.917099
 20
871.944435
 30
0.0
 10
196.296257
 20
869.137055
 30
0.0
 10
196.296257
 20
866.098890
 30
0.0
  0
SPLINE
  5
10c
100
AcDbEntity
  8
0
 62
7
100
AcDbSpline
 70
8
 71
3
 72
8
 73
4
 74
0
 40
0
 40
0
 40
0
 40
0
 40
1
 40
1
 40
1
 40
1
 10
196.296257
 20
866.098890
 30
0.0
 10
196.296257
 20
863.060725
 30
0.0
 10
197.917099
 20
860.253345
 30
0.0
 10
200.548226
 20
858.734263
 30
0.0
  0
SPLINE
  5
10d
100
AcDbEntity
  8
0
 62
7
100
AcDbSpline
 70
8
 71
3
 72
8
 73
4
 74
0
 40
0
 40
0
 40
0
 40
0
 40
1
 40
1
 40
1
 40
1
 10
200.548226
 20
858.734263
 30
0.0
 10
203.179354
 20
857.215180
 30
0.0
 10
206.421038
 20
857.215180
 30
0.0
 10
209.052166
 20
858.734263
 30
0.0
  0
SPLINE
  5
10e
100
AcDbEntity
  8
0
 62
7
100
AcDbSpline
 70
8
 71
3
 72
8
 73
4
 74
0
 40
0
 40
0
 40
0
 40
0
 40
1
 40
1
 40
1
 40
1
 10
209.052166
 20
858.734263
 30
0.0
 10
211.683293
 20
860.253345
 30
0.0
 10
213.304135
 20
863.060725
 30
0.0
 10
213.304135
 20
866.098890
 30
0.0
  0
LWPOLYLINE
  5
10f
100
AcDbEntity
  8
0
 62
7
100
AcDbPolyline
 90
1
 70
1
 10
213.304135
 20
562.285875
 30
0.0
  0
SPLINE
  5
110
100
AcDbEntity
  8
0
 62
7
100
AcDbSpline
 70
8
 71
3
 72
8
 73
4
 74
0
 40
0
 40
0
 40
0
 40
0
 40
1
 40
1
 40
1
 40
1
 10
326.689960
 20
562.285875
 30
0.0
 10
326.689960
 20
565.324040
 30
0.0
 10
325.069118
 20
568.131420
 30
0.0
 10
322.437990
 20
569.650502
 30
0.0
  0
SPLINE
  5
111
100
AcDbEntity
  8
0
 62
7
100
AcDbSpline
 70
8
 71
3
 72
8
 73
4
 74
0
 40
0
 40
0
 40
0
 40
0
 40
1
 40
1
 40
1
 40
1
 10
322.437990
 20
569.650502
 30
0.0
 10
319.806863
 20
571.169584
 30
0.0
 10
316.565179
 20
571.169584
 30
0.0
 10
313.934052
 20
569.650502
 30
0.0
  0
SPLINE
  5
112
100
AcDbEntity
  8
0
 62
7
100
AcDbSpline
 70
8
 71
3
 72
8
 73
4
 74
0
 40
0
 40
0
 40
0
 40
0
 40
1
 40
1
 40
1
 40
1
 10
313.934052
 20
569.650502
 30
0.0
 10
311.302924
 20
568.131420
 30
0.0
 10
309.682082
 20
565.324040
 30
0.0
 10
309.682082
 20
562.285875
 30
0.0
  0
SPLINE
  5
113
100
AcDbEntity
  8
0
 62
7
100
AcDbSpline
 70
8
 71
3
 72
8
 73
4
 74
0
 40
0
 40
0
 40
0
 40
0
 40
1
 40
1
 40
1
 40
1
 10
309.682082
 20
562.285875
 30
0.0
 10
309.682082
 20
559.247710
 30
0.0
 10
311.302924
 20
556.440330
 30
0.0
 10
313.934052
 20
554.921248
 30
0.0
  0
SPLINE
  5
114
100
AcDbEntity
  8
0
 62
7
100
AcDbSpline
 70
8
 71
3
 72
8
 73
4
 74
0
 40
0
 40
0
 40
0
 40
0
 40
1
 40
1
 40
1
 40
1
 10
313.934052
 20
554.921248
 30
0.0
 10
316.565179
 20
553.402166
 30
0.0
 10
319.806863
 20
553.402166
 30
0.0
 10
322.437990
 20
554.921248
 30
0.0
  0
SPLINE
  5
115
100
AcDbEntity
  8
0
 62
7
100
AcDbSpline
 70
8
 71
3
 72
8
 73
4
 74
0
 40
0
 40
0
 40
0
 40
0
 40
1
 40
1
 40
1
 40
1
 10
322.437990
 20
554.921248
 30
0.0
 10
325.069118
 20
556.440330
 30
0.0
 10
326.689960
 20
559.247710
 30
0.0
 10
326.689960
 20
562.285875
 30
0.0
  0
LWPOLYLINE
  5
116
100
AcDbEntity
  8
0
 62
7
100
AcDbPolyline
 90
1
 70
1
 10
213.304135
 20
866.098890
 30
0.0
  0
SPLINE
  5
117
100
AcDbEntity
  8
0
 62
7
100
AcDbSpline
 70
8
 71
3
 72
8
 73
4
 74
0
 40
0
 40
0
 40
0
 40
0
 40
1
 40
1
 40
1
 40
1
 10
326.689960
 20
866.098890
 30
0.0
 10
326.689960
 20
869.137055
 30
0.0
 10
325.069118
 20
871.944435
 30
0.0
 10
322.437990
 20
873.463517
 30
0.0
  0
SPLINE
  5
118
100
AcDbEntity
  8
0
 62
7
100
AcDbSpline
 70
8
 71
3
 72
8
 73
4
 74
0
 40
0
 40
0
 40
0
 40
0
 40
1
 40
1
 40
1
 40
1
 10
322.437990
 20
873.463517
 30
0.0
 10
319.806863
 20
874.982599
 30
0.0
 10
316.565179
 20
874.982599
 30
0.0
 10
313.934052
 20
873.463517
 30
0.0
  0
SPLINE
  5
119
100
AcDbEntity
  8
0
 62
7
100
AcDbSpline
 70
8
 71
3
 72
8
 73
4
 74
0
 40
0
 40
0
 40
0
 40
0
 40
1
 40
1
 40
1
 40
1
 10
313.934052
 20
873.463517
 30
0.0
 10
311.302924
 20
871.944435
 30
0.0
 10
309.682082
 20
869.137055
 30
0.0
 10
309.682082
 20
866.098890
 30
0.0
  0
SPLINE
  5
11a
100
AcDbEntity
  8
0
 62
7
100
AcDbSpline
 70
8
 71
3
 72
8
 73
4
 74
0
 40
0
 40
0
 40
0
 40
0
 40
1
 40
1
 40
1
 40
1
 10
309.682082
 20
866.098890
 30
0.0
 10
309.682082
 20
863.060725
 30
0.0
 10
311.302924
 20
860.253345
 30
0.0
 10
313.934052
 20
858.734263
 30
0.0
  0
SPLINE
  5
11b
100
AcDbEntity
  8
0
 62
7
100
AcDbSpline
 70
8
 71
3
 72
8
 73
4
 74
0
 40
0
 40
0
 40
0
 40
0
 40
1
 40
1
 40
1
 40
1
 10
313.934052
 20
858.734263
 30
0.0
 10
316.565179
 20
857.215181
 30
0.0
 10
319.806863
 20
857.215181
 30
0.0
 10
322.437990
 20
858.734263
 30
0.0
  0
SPLINE
  5
11c
100
AcDbEntity
  8
0
 62
7
100
AcDbSpline
 70
8
 71
3
 72
8
 73
4
 74
0
 40
0
 40
0
 40
0
 40
0
 40
1
 40
1
 40
1
 40
1
 10
322.437990
 20
858.734263
 30
0.0
 10
325.069118
 20
860.253345
 30
0.0
 10
326.689960
 20
863.060725
 30
0.0
 10
326.689960
 20
866.098890
 30
0.0
  0
LWPOLYLINE
  5
11d
100
AcDbEntity
  8
0
 62
7
100
AcDbPolyline
 90
1
 70
1
 10
326.689960
 20
562.285875
 30
0.0
  0
SPLINE
  5
11e
100
AcDbEntity
  8
0
 62
7
100
AcDbSpline
 70
8
 71
3
 72
8
 73
4
 74
0
 40
0
 40
0
 40
0
 40
0
 40
1
 40
1
 40
1
 40
1
 10
326.689960
 20
448.900013
 30
0.0
 10
326.689960
 20
451.938177
 30
0.0
 10
325.069118
 20
454.745557
 30
0.0
 10
322.437990
 20
456.264639
 30
0.0
  0
SPLINE
  5
11f
100
AcDbEntity
  8
0
 62
7
100
AcDbSpline
 70
8
 71
3
 72
8
 73
4
 74
0
 40
0
 40
0
 40
0
 40
0
 40
1
 40
1
 40
1
 40
1
 10
322.437990
 20
456.264639
 30
0.0
 10
319.806863
 20
457.783722
 30
0.0
 10
316.565179
 20
457.783722
 30
0.0
 10
313.934052
 20
456.264639
 30
0.0
  0
SPLINE
  5
120
100
AcDbEntity
  8
0
 62
7
100
AcDbSpline
 70
8
 71
3
 72
8
 73
4
 74
0
 40
0
 40
0
 40
0
 40
0
 40
1
 40
1
 40
1
 40
1
 10
313.934052
 20
456.264639
 30
0.0
 10
311.302924
 20
454.745557
 30
0.0
 10
309.682082
 20
451.938177
 30
0.0
 10
309.682082
 20
448.900013
 30
0.0
  0
SPLINE
  5
121
100
AcDbEntity
  8
0
 62
7
100
AcDbSpline
 70
8
 71
3
 72
8
 73
4
 74
0
 40
0
 40
0
 40
0
 40
0
 40
1
 40
1
 40
1
 40
1
 10
309.682082
 20
448.900013
 30
0.0
 10
309.682082
 20
445.861848
 30
0.0
 10
311.302924
 20
443.054468
 30
0.0
 10
313.934052
 20
441.535386
 30
0.0
  0
SPLINE
  5
122
100
AcDbEntity
  8
0
 62
7
100
AcDbSpline
 70
8
 71
3
 72
8
 73
4
 74
0
 40
0
 40
0
 40
0
 40
0
 40
1
 40
1
 40
1
 40
1
 10
313.934052
 20
441.535386
 30
0.0
 10
316.565179
 20
440.016303
 30
0.0
 10
319.806863
 20
440.016303
 30
0.0
 10
322.437990
 20
441.535386
 30
0.0
  0
SPLINE
  5
123
100
AcDbEntity
  8
0
 62
7
100
AcDbSpline
 70
8
 71
3
 72
8
 73
4
 74
0
 40
0
 40
0
 40
0
 40
0
 40
1
 40
1
 40
1
 40
1
 10
322.437990
 20
441.535386
 30
0.0
 10
325.069118
 20
443.054468
 30
0.0
 10
326.689960
 20
445.861848
 30
0.0
 10
326.689960
 20
448.900013
 30
0.0
  0
LWPOLYLINE
  5
124
100
AcDbEntity
  8
0
 62
7
100
AcDbPolyline
 90
1
 70
1
 10
326.689960
 20
866.098890
 30
0.0
  0
SPLINE
  5
125
100
AcDbEntity
  8
0
 62
7
100
AcDbSpline
 70
8
 71
3
 72
8
 73
4
 74
0
 40
0
 40
0
 40
0
 40
0
 40
1
 40
1
 40
1
 40
1
 10
213.304135
 20
448.900013
 30
0.0
 10
213.304135
 20
451.938177
 30
0.0
 10
211.683293
 20
454.745557
 30
0.0
 10
209.052166
 20
456.264640
 30
0.0
  0
SPLINE
  5
126
100
AcDbEntity
  8
0
 62
7
100
AcDbSpline
 70
8
 71
3
 72
8
 73
4
 74
0
 40
0
 40
0
 40
0
 40
0
 40
1
 40
1
 40
1
 40
1
 10
209.052166
 20
456.264640
 30
0.0
 10
206.421038
 20
457.783722
 30
0.0
 10
203.179354
 20
457.783722
 30
0.0
 10
200.548226
 20
456.264640
 30
0.0
  0
SPLINE
  5
127
100
AcDbEntity
  8
0
 62
7
100
AcDbSpline
 70
8
 71
3
 72
8
 73
4
 74
0
 40
0
 40
0
 40
0
 40
0
 40
1
 40
1
 40
1
 40
1
 10
200.548226
 20
456.264640
 30
0.0
 10
197.917099
 20
454.745557
 30
0.0
 10
196.296257
 20
451.938177
 30
0.0
 10
196.296257
 20
448.900013
 30
0.0
  0
SPLINE
  5
128
100
AcDbEntity
  8
0
 62
7
100
AcDbSpline
 70
8
 71
3
 72
8
 73
4
 74
0
 40
0
 40
0
 40
0
 40
0
 40
1
 40
1
 40
1
 40
1
 10
196.296257
 20
448.900013
 30
0.0
 10
196.296257
 20
445.861848
 30
0.0
 10
197.917099
 20
443.054468
 30
0.0
 10
200.548226
 20
441.535385
 30
0.0
  0
SPLINE
  5
129
100
AcDbEntity
  8
0
 62
7
100
AcDbSpline
 70
8
 71
3
 72
8
 73
4
 74
0
 40
0
 40
0
 40
0
 40
0
 40
1
 40
1
 40
1
 40
1
 10
200.548226
 20
441.535385
 30
0.0
 10
203.179354
 20
440.016303
 30
0.0
 10
206.421038
 20
440.016303
 30
0.0
 10
209.052166
 20
441.535385
 30
0.0
  0
SPLINE
  5
12a
100
AcDbEntity
  8
0
 62
7
100
AcDbSpline
 70
8
 71
3
 72
8
 73
4
 74
0
 40
0
 40
0
 40
0
 40
0
 40
1
 40
1
 40
1
 40
1
 10
209.052166
 20
441.535385
 30
0.0
 10
211.683293
 20
443.054468
 30
0.0
 10
213.304135
 20
445.861848
 30
0.0
 10
213.304135
 20
448.900013
 30
0.0
  0
LWPOLYLINE
  5
12b
100
AcDbEntity
  8
0
 62
7
100
AcDbPolyline
 90
1
 70
1
 10
326.689960
 20
448.900013
 30
0.0
  0
SPLINE
  5
12c
100
AcDbEntity
  8
0
 62
7
100
AcDbSpline
 70
8
 71
3
 72
8
 73
4
 74
0
 40
0
 40
0
 40
0
 40
0
 40
1
 40
1
 40
1
 40
1
 10
326.689960
 20
979.484722
 30
0.0
 10
326.689960
 20
982.522887
 30
0.0
 10
325.069118
 20
985.330267
 30
0.0
 10
322.437990
 20
986.849349
 30
0.0
  0
SPLINE
  5
12d
100
AcDbEntity
  8
0
 62
7
100
AcDbSpline
 70
8
 71
3
 72
8
 73
4
 74
0
 40
0
 40
0
 40
0
 40
0
 40
1
 40
1
 40
1
 40
1
 10
322.437990
 20
986.849349
 30
0.0
 10
319.806863
 20
988.368432
 30
0.0
 10
316.565179
 20
988.368432
 30
0.0
 10
313.934052
 20
986.849349
 30
0.0
  0
SPLINE
  5
12e
100
AcDbEntity
  8
0
 62
7
100
AcDbSpline
 70
8
 71
3
 72
8
 73
4
 74
0
 40
0
 40
0
 40
0
 40
0
 40
1
 40
1
 40
1
 40
1
 10
313.934052
 20
986.849349
 30
0.0
 10
311.302924
 20
985.330267
 30
0.0
 10
309.682082
 20
982.522887
 30
0.0
 10
309.682082
 20
979.484722
 30
0.0
  0
SPLINE
  5
12f
100
AcDbEntity
  8
0
 62
7
100
AcDbSpline
 70
8
 71
3
 72
8
 73
4
 74
0
 40
0
 40
0
 40
0
 40
0
 40
1
 40
1
 40
1
 40
1
 10
309.682082
 20
979.484722
 30
0.0
 10
309.682082
 20
976.446558
 30
0.0
 10
311.302924
 20
973.639178
 30
0.0
 10
313.934052
 20
972.120096
 30
0.0
  0
SPLINE
  5
130
100
AcDbEntity
  8
0
 62
7
100
AcDbSpline
 70
8
 71
3
 72
8
 73
4
 74
0
 40
0
 40
0
 40
0
 40
0
 40
1
 40
1
 40
1
 40
1
 10
313.934052
 20
972.120096
 30
0.0
 10
316.565179
 20
970.601013
 30
0.0
 10
319.806863
 20
970.601013
 30
0.0
 10
322.437990
 20
972.120096
 30
0.0
  0
SPLINE
  5
131
100
AcDbEntity
  8
0
 62
7
100
AcDbSpline
 70
8
 71
3
 72
8
 73
4
 74
0
 40
0
 40
0
 40
0
 40
0
 40
1
 40
1
 40
1
 40
1
 10
322.437990
 20
972.120096
 30
0.0
 10
325.069118
 20
973.639178
 30
0.0
 10
326.689960
 20
976.446558
 30
0.0
 10
326.689960
 20
979.484722
 30
0.0
  0
LWPOLYLINE
  5
132
100
AcDbEntity
  8
0
 62
7
100
AcDbPolyline
 90
1
 70
1
 10
213.304135
 20
448.900013
 30
0.0
  0
SPLINE
  5
133
100
AcDbEntity
  8
0
 62
7
100
AcDbSpline
 70
8
 71
3
 72
8
 73
4
 74
0
 40
0
 40
0
 40
0
 40
0
 40
1
 40
1
 40
1
 40
1
 10
213.304135
 20
979.484722
 30
0.0
 10
213.304135
 20
982.522887
 30
0.0
 10
211.683293
 20
985.330267
 30
0.0
 10
209.052166
 20
986.849350
 30
0.0
  0
SPLINE
  5
134
100
AcDbEntity
  8
0
 62
7
100
AcDbSpline
 70
8
 71
3
 72
8
 73
4
 74
0
 40
0
 40
0
 40
0
 40
0
 40
1
 40
1
 40
1
 40
1
 10
209.052166
 20
986.849350
 30
0.0
 10
206.421038
 20
988.368432
 30
0.0
 10
203.179354
 20
988.368432
 30
0.0
 10
200.548226
 20
986.849350
 30
0.0
  0
SPLINE
  5
135
100
AcDbEntity
  8
0
 62
7
100
AcDbSpline
 70
8
 71
3
 72
8
 73
4
 74
0
 40
0
 40
0
 40
0
 40
0
 40
1
 40
1
 40
1
 40
1
 10
200.548226
 20
986.849350
 30
0.0
 10
197.917099
 20
985.330267
 30
0.0
 10
196.296257
 20
982.522887
 30
0.0
 10
196.296257
 20
979.484722
 30
0.0
  0
SPLINE
  5
136
100
AcDbEntity
  8
0
 62
7
100
AcDbSpline
 70
8
 71
3
 72
8
 73
4
 74
0
 40
0
 40
0
 40
0
 40
0
 40
1
 40
1
 40
1
 40
1
 10
196.296257
 20
979.484722
 30
0.0
 10
196.296257
 20
976.446558
 30
0.0
 10
197.917099
 20
973.639178
 30
0.0
 10
200.548226
 20
972.120095
 30
0.0
  0
SPLINE
  5
137
100
AcDbEntity
  8
0
 62
7
100
AcDbSpline
 70
8
 71
3
 72
8
 73
4
 74
0
 40
0
 40
0
 40
0
 40
0
 40
1
 40
1
 40
1
 40
1
 10
200.548226
 20
972.120095
 30
0.0
 10
203.179354
 20
970.601013
 30
0.0
 10
206.421038
 20
970.601013
 30
0.0
 10
209.052166
 20
972.120095
 30
0.0
  0
SPLINE
  5
138
100
AcDbEntity
  8
0
 62
7
100
AcDbSpline
 70
8
 71
3
 72
8
 73
4
 74
0
 40
0
 40
0
 40
0
 40
0
 40
1
 40
1
 40
1
 40
1
 10
209.052166
 20
972.120095
 30
0.0
 10
211.683293
 20
973.639178
 30
0.0
 10
213.304135
 20
976.446558
 30
0.0
 10
213.304135
 20
979.484722
 30
0.0
  0
LWPOLYLINE
  5
139
100
AcDbEntity
  8
0
 62
7
100
AcDbPolyline
 90
1
 70
1
 10
326.689960
 20
979.484722
 30
0.0
  0
SPLINE
  5
13a
100
AcDbEntity
  8
0
 62
7
100
AcDbSpline
 70
8
 71
3
 72
8
 73
4
 74
0
 40
0
 40
0
 40
0
 40
0
 40
1
 40
1
 40
1
 40
1
 10
88.579727
 20
37.556138
 30
0.0
 10
88.581201
 20
41.608005
 30
0.0
 10
86.420402
 20
45.352716
 30
0.0
 10
82.911627
 20
47.379075
 30
0.0
  0
SPLINE
  5
13b
100
AcDbEntity
  8
0
 62
7
100
AcDbSpline
 70
8
 71
3
 72
8
 73
4
 74
0
 40
0
 40
0
 40
0
 40
0
 40
1
 40
1
 40
1
 40
1
 10
82.911627
 20
47.379075
 30
0.0
 10
79.402852
 20
49.405435
 30
0.0
 10
75.079438
 20
49.405435
 30
0.0
 10
71.570663
 20
47.379075
 30
0.0
  0
SPLINE
  5
13c
100
AcDbEntity
  8
0
 62
7
100
AcDbSpline
 70
8
 71
3
 72
8
 73
4
 74
0
 40
0
 40
0
 40
0
 40
0
 40
1
 40
1
 40
1
 40
1
 10
71.570663
 20
47.379075
 30
0.0
 10
68.061888
 20
45.352716
 30
0.0
 10
65.901089
 20
41.608005
 30
0.0
 10
65.902562
 20
37.556137
 30
0.0
  0
SPLINE
  5
13d
100
AcDbEntity
  8
0
 62
7
100
AcDbSpline
 70
8
 71
3
 72
8
 73
4
 74
0
 40
0
 40
0
 40
0
 40
0
 40
1
 40
1
 40
1
 40
1
 10
65.902562
 20
37.556137
 30
0.0
 10
65.901089
 20
33.504270
 30
0.0
 10
68.061888
 20
29.759559
 30
0.0
 10
71.570663
 20
27.733200
 30
0.0
  0
SPLINE
  5
13e
100
AcDbEntity
  8
0
 62
7
100
AcDbSpline
 70
8
 71
3
 72
8
 73
4
 74
0
 40
0
 40
0
 40
0
 40
0
 40
1
 40
1
 40
1
 40
1
 10
71.570663
 20
27.733200
 30
0.0
 10
75.079438
 20
25.706840
 30
0.0
 10
79.402852
 20
25.706840
 30
0.0
 10
82.911627
 20
27.733200
 30
0.0
  0
SPLINE
  5
13f
100
AcDbEntity
  8
0
 62
7
100
AcDbSpline
 70
8
 71
3
 72
8
 73
4
 74
0
 40
0
 40
0
 40
0
 40
0
 40
1
 40
1
 40
1
 40
1
 10
82.911627
 20
27.733200
 30
0.0
 10
86.420402
 20
29.759559
 30
0.0
 10
88.581201
 20
33.504270
 30
0.0
 10
88.579727
 20
37.556137
 30
0.0
  0
LWPOLYLINE
  5
140
100
AcDbEntity
  8
0
 62
7
100
AcDbPolyline
 90
1
 70
1
 10
213.304135
 20
979.484722
 30
0.0
  0
SPLINE
  5
141
100
AcDbEntity
  8
0
 62
7
100
AcDbSpline
 70
8
 71
3
 72
8
 73
4
 74
0
 40
0
 40
0
 40
0
 40
0
 40
1
 40
1
 40
1
 40
1
 10
88.579727
 20
287.004938
 30
0.0
 10
88.581201
 20
291.056805
 30
0.0
 10
86.420402
 20
294.801516
 30
0.0
 10
82.911627
 20
296.827875
 30
0.0
  0
SPLINE
  5
142
100
AcDbEntity
  8
0
 62
7
100
AcDbSpline
 70
8
 71
3
 72
8
 73
4
 74
0
 40
0
 40
0
 40
0
 40
0
 40
1
 40
1
 40
1
 40
1
 10
82.911627
 20
296.827875
 30
0.0
 10
79.402852
 20
298.854235
 30
0.0
 10
75.079438
 20
298.854235
 30
0.0
 10
71.570663
 20
296.827875
 30
0.0
  0
SPLINE
  5
143
100
AcDbEntity
  8
0
 62
7
100
AcDbSpline
 70
8
 71
3
 72
8
 73
4
 74
0
 40
0
 40
0
 40
0
 40
0
 40
1
 40
1
 40
1
 40
1
 10
71.570663
 20
296.827875
 30
0.0
 10
68.061888
 20
294.801516
 30
0.0
 10
65.901089
 20
291.056805
 30
0.0
 10
65.902562
 20
287.004937
 30
0.0
  0
SPLINE
  5
144
100
AcDbEntity
  8
0
 62
7
100
AcDbSpline
 70
8
 71
3
 72
8
 73
4
 74
0
 40
0
 40
0
 40
0
 40
0
 40
1
 40
1
 40
1
 40
1
 10
65.902562
 20
287.004937
 30
0.0
 10
65.901089
 20
282.953070
 30
0.0
 10
68.061888
 20
279.208359
 30
0.0
 10
71.570663
 20
277.182000
 30
0.0
  0
SPLINE
  5
145
100
AcDbEntity
  8
0
 62
7
100
AcDbSpline
 70
8
 71
3
 72
8
 73
4
 74
0
 40
0
 40
0
 40
0
 40
0
 40
1
 40
1
 40
1
 40
1
 10
71.570663
 20
277.182000
 30
0.0
 10
75.079438
 20
275.155640
 30
0.0
 10
79.402852
 20
275.155640
 30
0.0
 10
82.911627
 20
277.182000
 30
0.0
  0
SPLINE
  5
146
100
AcDbEntity
  8
0
 62
7
100
AcDbSpline
 70
8
 71
3
 72
8
 73
4
 74
0
 40
0
 40
0
 40
0
 40
0
 40
1
 40
1
 40
1
 40
1
 10
82.911627
 20
277.182000
 30
0.0
 10
86.420402
 20
279.208359
 30
0.0
 10
88.581201
 20
282.953070
 30
0.0
 10
88.579727
 20
287.004937
 30
0.0
  0
LWPOLYLINE
  5
147
100
AcDbEntity
  8
0
 62
7
100
AcDbPolyline
 90
1
 70
1
 10
88.579727
 20
37.556137
 30
0.0
  0
SPLINE
  5
148
100
AcDbEntity
  8
0
 62
7
100
AcDbSpline
 70
8
 71
3
 72
8
 73
4
 74
0
 40
0
 40
0
 40
0
 40
0
 40
1
 40
1
 40
1
 40
1
 10
272.831695
 20
287.004937
 30
0.0
 10
272.831695
 20
291.055823
 30
0.0
 10
270.670573
 20
294.798995
 30
0.0
 10
267.162404
 20
296.824438
 30
0.0
  0
SPLINE
  5
149
100
AcDbEntity
  8
0
 62
7
100
AcDbSpline
 70
8
 71
3
 72
8
 73
4
 74
0
 40
0
 40
0
 40
0
 40
0
 40
1
 40
1
 40
1
 40
1
 10
267.162404
 20
296.824438
 30
0.0
 10
263.654234
 20
298.849881
 30
0.0
 10
259.331991
 20
298.849881
 30
0.0
 10
255.823821
 20
296.824438
 30
0.0
  0
SPLINE
  5
14a
100
AcDbEntity
  8
0
 62
7
100
AcDbSpline
 70
8
 71
3
 72
8
 73
4
 74
0
 40
0
 40
0
 40
0
 40
0
 40
1
 40
1
 40
1
 40
1
 10
255.823821
 20
296.824438
 30
0.0
 10
252.315651
 20
294.798995
 30
0.0
 10
250.154530
 20
291.055823
 30
0.0
 10
250.154530
 20
287.004937
 30
0.0
  0
SPLINE
  5
14b
100
AcDbEntity
  8
0
 62
7
100
AcDbSpline
 70
8
 71
3
 72
8
 73
4
 74
0
 40
0
 40
0
 40
0
 40
0
 40
1
 40
1
 40
1
 40
1
 10
250.154530
 20
287.004937
 30
0.0
 10
250.154530
 20
282.954052
 30
0.0
 10
252.315651
 20
279.210879
 30
0.0
 10
255.823821
 20
277.185436
 30
0.0
  0
SPLINE
  5
14c
100
AcDbEntity
  8
0
 62
7
100
AcDbSpline
 70
8
 71
3
 72
8
 73
4
 74
0
 40
0
 40
0
 40
0
 40
0
 40
1
 40
1
 40
1
 40
1
 10
255.823821
 20
277.185436
 30
0.0
 10
259.331991
 20
275.159994
 30
0.0
 10
263.654234
 20
275.159994
 30
0.0
 10
267.162404
 20
277.185436
 30
0.0
  0
SPLINE
  5
14d
100
AcDbEntity
  8
0
 62
7
100
AcDbSpline
 70
8
 71
3
 72
8
 73
4
 74
0
 40
0
 40
0
 40
0
 40
0
 40
1
 40
1
 40
1
 40
1
 10
267.162404
 20
277.185436
 30
0.0
 10
270.670573
 20
279.210879
 30
0.0
 10
272.831695
 20
282.954052
 30
0.0
 10
272.831695
 20
287.004937
 30
0.0
  0
LWPOLYLINE
  5
14e
100
AcDbEntity
  8
0
 62
7
100
AcDbPolyline
 90
1
 70
1
 10
88.579727
 20
287.004937
 30
0.0
  0
LWPOLYLINE
  5
14f
100
AcDbEntity
  8
0
 62
7
100
AcDbPolyline
 90
1
 70
1
 10
272.831695
 20
287.004937
 30
0.0
  0
SPLINE
  5
150
100
AcDbEntity
  8
0
 62
7
100
AcDbSpline
 70
8
 71
3
 72
8
 73
4
 74
0
 40
0
 40
0
 40
0
 40
0
 40
1
 40
1
 40
1
 40
1
 10
457.083662
 20
37.556137
 30
0.0
 10
457.083662
 20
41.607023
 30
0.0
 10
454.922541
 20
45.350195
 30
0.0
 10
451.414371
 20
47.375638
 30
0.0
  0
SPLINE
  5
151
100
AcDbEntity
  8
0
 62
7
100
AcDbSpline
 70
8
 71
3
 72
8
 73
4
 74
0
 40
0
 40
0
 40
0
 40
0
 40
1
 40
1
 40
1
 40
1
 10
451.414371
 20
47.375638
 30
0.0
 10
447.906201
 20
49.401081
 30
0.0
 10
443.583958
 20
49.401081
 30
0.0
 10
440.075788
 20
47.375638
 30
0.0
  0
SPLINE
  5
152
100
AcDbEntity
  8
0
 62
7
100
AcDbSpline
 70
8
 71
3
 72
8
 73
4
 74
0
 40
0
 40
0
 40
0
 40
0
 40
1
 40
1
 40
1
 40
1
 10
440.075788
 20
47.375638
 30
0.0
 10
436.567619
 20
45.350195
 30
0.0
 10
434.406497
 20
41.607023
 30
0.0
 10
434.406497
 20
37.556137
 30
0.0
  0
SPLINE
  5
153
100
AcDbEntity
  8
0
 62
7
100
AcDbSpline
 70
8
 71
3
 72
8
 73
4
 74
0
 40
0
 40
0
 40
0
 40
0
 40
1
 40
1
 40
1
 40
1
 10
434.406497
 20
37.556137
 30
0.0
 10
434.406497
 20
33.505252
 30
0.0
 10
436.567619
 20
29.762080
 30
0.0
 10
440.075788
 20
27.736637
 30
0.0
  0
SPLINE
  5
154
100
AcDbEntity
  8
0
 62
7
100
AcDbSpline
 70
8
 71
3
 72
8
 73
4
 74
0
 40
0
 40
0
 40
0
 40
0
 40
1
 40
1
 40
1
 40
1
 10
440.075788
 20
27.736637
 30
0.0
 10
443.583958
 20
25.711194
 30
0.0
 10
447.906201
 20
25.711194
 30
0.0
 10
451.414371
 20
27.736637
 30
0.0
  0
SPLINE
  5
155
100
AcDbEntity
  8
0
 62
7
100
AcDbSpline
 70
8
 71
3
 72
8
 73
4
 74
0
 40
0
 40
0
 40
0
 40
0
 40
1
 40
1
 40
1
 40
1
 10
451.414371
 20
27.736637
 30
0.0
 10
454.922541
 20
29.762080
 30
0.0
 10
457.083662
 20
33.505252
 30
0.0
 10
457.083662
 20
37.556137
 30
0.0
  0
LWPOLYLINE
  5
156
100
AcDbEntity
  8
0
 62
7
100
AcDbPolyline
 90
6
 70
1
 10
516.611222
 20
12.044287
 30
0.0
 10
510.941927
 20
6.375037
 30
0.0
 10
12.044291
 20
6.375037
 30
0.0
 10
6.375000
 20
12.044287
 30
0.0
 10
6.375000
 20
68.737237
 30
0.0
 10
516.611222
 20
68.737237
 30
0.0
  0
SPLINE
  5
157
100
AcDbEntity
  8
0
 62
7
100
AcDbSpline
 70
8
 71
3
 72
8
 73
4
 74
0
 40
0
 40
0
 40
0
 40
0
 40
1
 40
1
 40
1
 40
1
 10
272.831695
 20
37.556137
 30
0.0
 10
272.831695
 20
41.607023
 30
0.0
 10
270.670573
 20
45.350195
 30
0.0
 10
267.162404
 20
47.375638
 30
0.0
  0
SPLINE
  5
158
100
AcDbEntity
  8
0
 62
7
100
AcDbSpline
 70
8
 71
3
 72
8
 73
4
 74
0
 40
0
 40
0
 40
0
 40
0
 40
1
 40
1
 40
1
 40
1
 10
267.162404
 20
47.375638
 30
0.0
 10
263.654234
 20
49.401081
 30
0.0
 10
259.331991
 20
49.401081
 30
0.0
 10
255.823821
 20
47.375638
 30
0.0
  0
SPLINE
  5
159
100
AcDbEntity
  8
0
 62
7
100
AcDbSpline
 70
8
 71
3
 72
8
 73
4
 74
0
 40
0
 40
0
 40
0
 40
0
 40
1
 40
1
 40
1
 40
1
 10
255.823821
 20
47.375638
 30
0.0
 10
252.315651
 20
45.350195
 30
0.0
 10
250.154530
 20
41.607023
 30
0.0
 10
250.154530
 20
37.556137
 30
0.0
  0
SPLINE
  5
15a
100
AcDbEntity
  8
0
 62
7
100
AcDbSpline
 70
8
 71
3
 72
8
 73
4
 74
0
 40
0
 40
0
 40
0
 40
0
 40
1
 40
1
 40
1
 40
1
 10
250.154530
 20
37.556137
 30
0.0
 10
250.154530
 20
33.505252
 30
0.0
 10
252.315651
 20
29.762079
 30
0.0
 10
255.823821
 20
27.736636
 30
0.0
  0
SPLINE
  5
15b
100
AcDbEntity
  8
0
 62
7
100
AcDbSpline
 70
8
 71
3
 72
8
 73
4
 74
0
 40
0
 40
0
 40
0
 40
0
 40
1
 40
1
 40
1
 40
1
 10
255.823821
 20
27.736636
 30
0.0
 10
259.331991
 20
25.711194
 30
0.0
 10
263.654234
 20
25.711194
 30
0.0
 10
267.162404
 20
27.736636
 30
0.0
  0
SPLINE
  5
15c
100
AcDbEntity
  8
0
 62
7
100
AcDbSpline
 70
8
 71
3
 72
8
 73
4
 74
0
 40
0
 40
0
 40
0
 40
0
 40
1
 40
1
 40
1
 40
1
 10
267.162404
 20
27.736636
 30
0.0
 10
270.670573
 20
29.762079
 30
0.0
 10
272.831695
 20
33.505252
 30
0.0
 10
272.831695
 20
37.556137
 30
0.0
  0
LWPOLYLINE
  5
15d
100
AcDbEntity
  8
0
 62
7
100
AcDbPolyline
 90
1
 70
1
 10
457.083662
 20
37.556137
 30
0.0
  0
SPLINE
  5
15e
100
AcDbEntity
  8
0
 62
7
100
AcDbSpline
 70
8
 71
3
 72
8
 73
4
 74
0
 40
0
 40
0
 40
0
 40
0
 40
1
 40
1
 40
1
 40
1
 10
88.579727
 20
37.556138
 30
0.0
 10
88.581201
 20
41.608005
 30
0.0
 10
86.420402
 20
45.352716
 30
0.0
 10
82.911627
 20
47.379075
 30
0.0
  0
SPLINE
  5
15f
100
AcDbEntity
  8
0
 62
7
100
AcDbSpline
 70
8
 71
3
 72
8
 73
4
 74
0
 40
0
 40
0
 40
0
 40
0
 40
1
 40
1
 40
1
 40
1
 10
82.911627
 20
47.379075
 30
0.0
 10
79.402852
 20
49.405435
 30
0.0
 10
75.079438
 20
49.405435
 30
0.0
 10
71.570663
 20
47.379075
 30
0.0
  0
SPLINE
  5
160
100
AcDbEntity
  8
0
 62
7
100
AcDbSpline
 70
8
 71
3
 72
8
 73
4
 74
0
 40
0
 40
0
 40
0
 40
0
 40
1
 40
1
 40
1
 40
1
 10
71.570663
 20
47.379075
 30
0.0
 10
68.061888
 20
45.352716
 30
0.0
 10
65.901089
 20
41.608005
 30
0.0
 10
65.902562
 20
37.556137
 30
0.0
  0
SPLINE
  5
161
100
AcDbEntity
  8
0
 62
7
100
AcDbSpline
 70
8
 71
3
 72
8
 73
4
 74
0
 40
0
 40
0
 40
0
 40
0
 40
1
 40
1
 40
1
 40
1
 10
65.902562
 20
37.556137
 30
0.0
 10
65.901089
 20
33.504270
 30
0.0
 10
68.061888
 20
29.759559
 30
0.0
 10
71.570663
 20
27.733200
 30
0.0
  0
SPLINE
  5
162
100
AcDbEntity
  8
0
 62
7
100
AcDbSpline
 70
8
 71
3
 72
8
 73
4
 74
0
 40
0
 40
0
 40
0
 40
0
 40
1
 40
1
 40
1
 40
1
 10
71.570663
 20
27.733200
 30
0.0
 10
75.079438
 20
25.706840
 30
0.0
 10
79.402852
 20
25.706840
 30
0.0
 10
82.911627
 20
27.733200
 30
0.0
  0
SPLINE
  5
163
100
AcDbEntity
  8
0
 62
7
100
AcDbSpline
 70
8
 71
3
 72
8
 73
4
 74
0
 40
0
 40
0
 40
0
 40
0
 40
1
 40
1
 40
1
 40
1
 10
82.911627
 20
27.733200
 30
0.0
 10
86.420402
 20
29.759559
 30
0.0
 10
88.581201
 20
33.504270
 30
0.0
 10
88.579727
 20
37.556137
 30
0.0
  0
LWPOLYLINE
  5
164
100
AcDbEntity
  8
0
 62
7
100
AcDbPolyline
 90
1
 70
1
 10
272.831695
 20
37.556137
 30
0.0
  0
SPLINE
  5
165
100
AcDbEntity
  8
0
 62
7
100
AcDbSpline
 70
8
 71
3
 72
8
 73
4
 74
0
 40
0
 40
0
 40
0
 40
0
 40
1
 40
1
 40
1
 40
1
 10
457.083662
 20
37.556137
 30
0.0
 10
457.083662
 20
41.607023
 30
0.0
 10
454.922541
 20
45.350195
 30
0.0
 10
451.414371
 20
47.375638
 30
0.0
  0
SPLINE
  5
166
100
AcDbEntity
  8
0
 62
7
100
AcDbSpline
 70
8
 71
3
 72
8
 73
4
 74
0
 40
0
 40
0
 40
0
 40
0
 40
1
 40
1
 40
1
 40
1
 10
451.414371
 20
47.375638
 30
0.0
 10
447.906201
 20
49.401081
 30
0.0
 10
443.583958
 20
49.401081
 30
0.0
 10
440.075788
 20
47.375638
 30
0.0
  0
SPLINE
  5
167
100
AcDbEntity
  8
0
 62
7
100
AcDbSpline
 70
8
 71
3
 72
8
 73
4
 74
0
 40
0
 40
0
 40
0
 40
0
 40
1
 40
1
 40
1
 40
1
 10
440.075788
 20
47.375638
 30
0.0
 10
436.567619
 20
45.350195
 30
0.0
 10
434.406497
 20
41.607023
 30
0.0
 10
434.406497
 20
37.556137
 30
0.0
  0
SPLINE
  5
168
100
AcDbEntity
  8
0
 62
7
100
AcDbSpline
 70
8
 71
3
 72
8
 73
4
 74
0
 40
0
 40
0
 40
0
 40
0
 40
1
 40
1
 40
1
 40
1
 10
434.406497
 20
37.556137
 30
0.0
 10
434.406497
 20
33.505252
 30
0.0
 10
436.567619
 20
29.762080
 30
0.0
 10
440.075788
 20
27.736637
 30
0.0
  0
SPLINE
  5
169
100
AcDbEntity
  8
0
 62
7
100
AcDbSpline
 70
8
 71
3
 72
8
 73
4
 74
0
 40
0
 40
0
 40
0
 40
0
 40
1
 40
1
 40
1
 40
1
 10
440.075788
 20
27.736637
 30
0.0
 10
443.583958
 20
25.711194
 30
0.0
 10
447.906201
 20
25.711194
 30
0.0
 10
451.414371
 20
27.736637
 30
0.0
  0
SPLINE
  5
16a
100
AcDbEntity
  8
0
 62
7
100
AcDbSpline
 70
8
 71
3
 72
8
 73
4
 74
0
 40
0
 40
0
 40
0
 40
0
 40
1
 40
1
 40
1
 40
1
 10
451.414371
 20
27.736637
 30
0.0
 10
454.922541
 20
29.762080
 30
0.0
 10
457.083662
 20
33.505252
 30
0.0
 10
457.083662
 20
37.556137
 30
0.0
  0
LWPOLYLINE
  5
16b
100
AcDbEntity
  8
0
 62
7
100
AcDbPolyline
 90
1
 70
1
 10
88.579727
 20
37.556137
 30
0.0
  0
LWPOLYLINE
  5
16c
100
AcDbEntity
  8
0
 62
7
100
AcDbPolyline
 90
1
 70
1
 10
457.083662
 20
37.556137
 30
0.0
  0
SPLINE
  5
16d
100
AcDbEntity
  8
0
 62
7
100
AcDbSpline
 70
8
 71
3
 72
8
 73
4
 74
0
 40
0
 40
0
 40
0
 40
0
 40
1
 40
1
 40
1
 40
1
 10
88.579727
 20
287.004938
 30
0.0
 10
88.581201
 20
291.056805
 30
0.0
 10
86.420402
 20
294.801516
 30
0.0
 10
82.911627
 20
296.827875
 30
0.0
  0
SPLINE
  5
16e
100
AcDbEntity
  8
0
 62
7
100
AcDbSpline
 70
8
 71
3
 72
8
 73
4
 74
0
 40
0
 40
0
 40
0
 40
0
 40
1
 40
1
 40
1
 40
1
 10
82.911627
 20
296.827875
 30
0.0
 10
79.402852
 20
298.854235
 30
0.0
 10
75.079438
 20
298.854235
 30
0.0
 10
71.570663
 20
296.827875
 30
0.0
  0
SPLINE
  5
16f
100
AcDbEntity
  8
0
 62
7
100
AcDbSpline
 70
8
 71
3
 72
8
 73
4
 74
0
 40
0
 40
0
 40
0
 40
0
 40
1
 40
1
 40
1
 40
1
 10
71.570663
 20
296.827875
 30
0.0
 10
68.061888
 20
294.801516
 30
0.0
 10
65.901089
 20
291.056805
 30
0.0
 10
65.902562
 20
287.004937
 30
0.0
  0
SPLINE
  5
170
100
AcDbEntity
  8
0
 62
7
100
AcDbSpline
 70
8
 71
3
 72
8
 73
4
 74
0
 40
0
 40
0
 40
0
 40
0
 40
1
 40
1
 40
1
 40
1
 10
65.902562
 20
287.004937
 30
0.0
 10
65.901089
 20
282.953070
 30
0.0
 10
68.061888
 20
279.208359
 30
0.0
 10
71.570663
 20
277.182000
 30
0.0
  0
SPLINE
  5
171
100
AcDbEntity
  8
0
 62
7
100
AcDbSpline
 70
8
 71
3
 72
8
 73
4
 74
0
 40
0
 40
0
 40
0
 40
0
 40
1
 40
1
 40
1
 40
1
 10
71.570663
 20
277.182000
 30
0.0
 10
75.079438
 20
275.155640
 30
0.0
 10
79.402852
 20
275.155640
 30
0.0
 10
82.911627
 20
277.182000
 30
0.0
  0
SPLINE
  5
172
100
AcDbEntity
  8
0
 62
7
100
AcDbSpline
 70
8
 71
3
 72
8
 73
4
 74
0
 40
0
 40
0
 40
0
 40
0
 40
1
 40
1
 40
1
 40
1
 10
82.911627
 20
277.182000
 30
0.0
 10
86.420402
 20
279.208359
 30
0.0
 10
88.581201
 20
282.953070
 30
0.0
 10
88.579727
 20
287.004937
 30
0.0
  0
LWPOLYLINE
  5
173
100
AcDbEntity
  8
0
 62
7
100
AcDbPolyline
 90
6
 70
1
 10
6.375000
 20
312.516712
 30
0.0
 10
12.044291
 20
318.186037
 30
0.0
 10
510.941927
 20
318.186037
 30
0.0
 10
516.611222
 20
312.516712
 30
0.0
 10
516.611222
 20
255.823837
 30
0.0
 10
6.375000
 20
255.823837
 30
0.0
  0
SPLINE
  5
174
100
AcDbEntity
  8
0
 62
7
100
AcDbSpline
 70
8
 71
3
 72
8
 73
4
 74
0
 40
0
 40
0
 40
0
 40
0
 40
1
 40
1
 40
1
 40
1
 10
272.831695
 20
287.004937
 30
0.0
 10
272.831695
 20
291.055823
 30
0.0
 10
270.670573
 20
294.798995
 30
0.0
 10
267.162404
 20
296.824438
 30
0.0
  0
SPLINE
  5
175
100
AcDbEntity
  8
0
 62
7
100
AcDbSpline
 70
8
 71
3
 72
8
 73
4
 74
0
 40
0
 40
0
 40
0
 40
0
 40
1
 40
1
 40
1
 40
1
 10
267.162404
 20
296.824438
 30
0.0
 10
263.654234
 20
298.849881
 30
0.0
 10
259.331991
 20
298.849881
 30
0.0
 10
255.823821
 20
296.824438
 30
0.0
  0
SPLINE
  5
176
100
AcDbEntity
  8
0
 62
7
100
AcDbSpline
 70
8
 71
3
 72
8
 73
4
 74
0
 40
0
 40
0
 40
0
 40
0
 40
1
 40
1
 40
1
 40
1
 10
255.823821
 20
296.824438
 30
0.0
 10
252.315651
 20
294.798995
 30
0.0
 10
250.154530
 20
291.055823
 30
0.0
 10
250.154530
 20
287.004937
 30
0.0
  0
SPLINE
  5
177
100
AcDbEntity
  8
0
 62
7
100
AcDbSpline
 70
8
 71
3
 72
8
 73
4
 74
0
 40
0
 40
0
 40
0
 40
0
 40
1
 40
1
 40
1
 40
1
 10
250.154530
 20
287.004937
 30
0.0
 10
250.154530
 20
282.954052
 30
0.0
 10
252.315651
 20
279.210879
 30
0.0
 10
255.823821
 20
277.185436
 30
0.0
  0
SPLINE
  5
178
100
AcDbEntity
  8
0
 62
7
100
AcDbSpline
 70
8
 71
3
 72
8
 73
4
 74
0
 40
0
 40
0
 40
0
 40
0
 40
1
 40
1
 40
1
 40
1
 10
255.823821
 20
277.185436
 30
0.0
 10
259.331991
 20
275.159994
 30
0.0
 10
263.654234
 20
275.159994
 30
0.0
 10
267.162404
 20
277.185436
 30
0.0
  0
SPLINE
  5
179
100
AcDbEntity
  8
0
 62
7
100
AcDbSpline
 70
8
 71
3
 72
8
 73
4
 74
0
 40
0
 40
0
 40
0
 40
0
 40
1
 40
1
 40
1
 40
1
 10
267.162404
 20
277.185436
 30
0.0
 10
270.670573
 20
279.210879
 30
0.0
 10
272.831695
 20
282.954052
 30
0.0
 10
272.831695
 20
287.004937
 30
0.0
  0
LWPOLYLINE
  5
17a
100
AcDbEntity
  8
0
 62
7
100
AcDbPolyline
 90
1
 70
1
 10
88.579727
 20
287.004937
 30
0.0
  0
SPLINE
  5
17b
100
AcDbEntity
  8
0
 62
7
100
AcDbSpline
 70
8
 71
3
 72
8
 73
4
 74
0
 40
0
 40
0
 40
0
 40
0
 40
1
 40
1
 40
1
 40
1
 10
457.083662
 20
287.004937
 30
0.0
 10
457.083662
 20
291.055823
 30
0.0
 10
454.922541
 20
294.798995
 30
0.0
 10
451.414371
 20
296.824438
 30
0.0
  0
SPLINE
  5
17c
100
AcDbEntity
  8
0
 62
7
100
AcDbSpline
 70
8
 71
3
 72
8
 73
4
 74
0
 40
0
 40
0
 40
0
 40
0
 40
1
 40
1
 40
1
 40
1
 10
451.414371
 20
296.824438
 30
0.0
 10
447.906201
 20
298.849881
 30
0.0
 10
443.583958
 20
298.849881
 30
0.0
 10
440.075788
 20
296.824438
 30
0.0
  0
SPLINE
  5
17d
100
AcDbEntity
  8
0
 62
7
100
AcDbSpline
 70
8
 71
3
 72
8
 73
4
 74
0
 40
0
 40
0
 40
0
 40
0
 40
1
 40
1
 40
1
 40
1
 10
440.075788
 20
296.824438
 30
0.0
 10
436.567619
 20
294.798995
 30
0.0
 10
434.406497
 20
291.055823
 30
0.0
 10
434.406497
 20
287.004937
 30
0.0
  0
SPLINE
  5
17e
100
AcDbEntity
  8
0
 62
7
100
AcDbSpline
 70
8
 71
3
 72
8
 73
4
 74
0
 40
0
 40
0
 40
0
 40
0
 40
1
 40
1
 40
1
 40
1
 10
434.406497
 20
287.004937
 30
0.0
 10
434.406497
 20
282.954052
 30
0.0
 10
436.567619
 20
279.210880
 30
0.0
 10
440.075788
 20
277.185437
 30
0.0
  0
SPLINE
  5
17f
100
AcDbEntity
  8
0
 62
7
100
AcDbSpline
 70
8
 71
3
 72
8
 73
4
 74
0
 40
0
 40
0
 40
0
 40
0
 40
1
 40
1
 40
1
 40
1
 10
440.075788
 20
277.185437
 30
0.0
 10
443.583958
 20
275.159994
 30
0.0
 10
447.906201
 20
275.159994
 30
0.0
 10
451.414371
 20
277.185437
 30
0.0
  0
SPLINE
  5
180
100
AcDbEntity
  8
0
 62
7
100
AcDbSpline
 70
8
 71
3
 72
8
 73
4
 74
0
 40
0
 40
0
 40
0
 40
0
 40
1
 40
1
 40
1
 40
1
 10
451.414371
 20
277.185437
 30
0.0
 10
454.922541
 20
279.210880
 30
0.0
 10
457.083662
 20
282.954052
 30
0.0
 10
457.083662
 20
287.004937
 30
0.0
  0
LWPOLYLINE
  5
181
100
AcDbEntity
  8
0
 62
7
100
AcDbPolyline
 90
1
 70
1
 10
272.831695
 20
287.004937
 30
0.0
  0
LWPOLYLINE
  5
182
100
AcDbEntity
  8
0
 62
7
100
AcDbPolyline
 90
1
 70
1
 10
457.083662
 20
287.004937
 30
0.0
  0
SPLINE
  5
183
100
AcDbEntity
  8
0
 62
7
100
AcDbSpline
 70
8
 71
3
 72
8
 73
4
 74
0
 40
0
 40
0
 40
0
 40
0
 40
1
 40
1
 40
1
 40
1
 10
213.304135
 20
562.285875
 30
0.0
 10
213.304135
 20
565.324040
 30
0.0
 10
211.683293
 20
568.131420
 30
0.0
 10
209.052166
 20
569.650502
 30
0.0
  0
SPLINE
  5
184
100
AcDbEntity
  8
0
 62
7
100
AcDbSpline
 70
8
 71
3
 72
8
 73
4
 74
0
 40
0
 40
0
 40
0
 40
0
 40
1
 40
1
 40
1
 40
1
 10
209.052166
 20
569.650502
 30
0.0
 10
206.421038
 20
571.169585
 30
0.0
 10
203.179354
 20
571.169585
 30
0.0
 10
200.548226
 20
569.650502
 30
0.0
  0
SPLINE
  5
185
100
AcDbEntity
  8
0
 62
7
100
AcDbSpline
 70
8
 71
3
 72
8
 73
4
 74
0
 40
0
 40
0
 40
0
 40
0
 40
1
 40
1
 40
1
 40
1
 10
200.548226
 20
569.650502
 30
0.0
 10
197.917099
 20
568.131420
 30
0.0
 10
196.296257
 20
565.324040
 30
0.0
 10
196.296257
 20
562.285875
 30
0.0
  0
SPLINE
  5
186
100
AcDbEntity
  8
0
 62
7
100
AcDbSpline
 70
8
 71
3
 72
8
 73
4
 74
0
 40
0
 40
0
 40
0
 40
0
 40
1
 40
1
 40
1
 40
1
 10
196.296257
 20
562.285875
 30
0.0
 10
196.296257
 20
559.247710
 30
0.0
 10
197.917099
 20
556.440330
 30
0.0
 10
200.548226
 20
554.921248
 30
0.0
  0
SPLINE
  5
187
100
AcDbEntity
  8
0
 62
7
100
AcDbSpline
 70
8
 71
3
 72
8
 73
4
 74
0
 40
0
 40
0
 40
0
 40
0
 40
1
 40
1
 40
1
 40
1
 10
200.548226
 20
554.921248
 30
0.0
 10
203.179354
 20
553.402165
 30
0.0
 10
206.421038
 20
553.402165
 30
0.0
 10
209.052166
 20
554.921248
 30
0.0
  0
SPLINE
  5
188
100
AcDbEntity
  8
0
 62
7
100
AcDbSpline
 70
8
 71
3
 72
8
 73
4
 74
0
 40
0
 40
0
 40
0
 40
0
 40
1
 40
1
 40
1
 40
1
 10
209.052166
 20
554.921248
 30
0.0
 10
211.683293
 20
556.440330
 30
0.0
 10
213.304135
 20
559.247710
 30
0.0
 10
213.304135
 20
562.285875
 30
0.0
  0
LWPOLYLINE
  5
189
100
AcDbEntity
  8
0
 62
7
100
AcDbPolyline
 90
8
 70
1
 10
346.532477
 20
440.396137
 30
0.0
 10
326.689960
 20
420.553612
 30
0.0
 10
196.296257
 20
420.553612
 30
0.0
 10
176.453740
 20
440.396137
 30
0.0
 10
176.453740
 20
987.988657
 30
0.0
 10
196.296257
 20
1007.831175
 30
0.0
 10
326.689960
 20
1007.831175
 30
0.0
 10
346.532477
 20
987.988657
 30
0.0
  0
SPLINE
  5
18a
100
AcDbEntity
  8
0
 62
7
100
AcDbSpline
 70
8
 71
3
 72
8
 73
4
 74
0
 40
0
 40
0
 40
0
 40
0
 40
1
 40
1
 40
1
 40
1
 10
213.304135
 20
866.098890
 30
0.0
 10
213.304135
 20
869.137055
 30
0.0
 10
211.683293
 20
871.944435
 30
0.0
 10
209.052166
 20
873.463517
 30
0.0
  0
SPLINE
  5
18b
100
AcDbEntity
  8
0
 62
7
100
AcDbSpline
 70
8
 71
3
 72
8
 73
4
 74
0
 40
0
 40
0
 40
0
 40
0
 40
1
 40
1
 40
1
 40
1
 10
209.052166
 20
873.463517
 30
0.0
 10
206.421038
 20
874.982600
 30
0.0
 10
203.179354
 20
874.982600
 30
0.0
 10
200.548226
 20
873.463517
 30
0.0
  0
SPLINE
  5
18c
100
AcDbEntity
  8
0
 62
7
100
AcDbSpline
 70
8
 71
3
 72
8
 73
4
 74
0
 40
0
 40
0
 40
0
 40
0
 40
1
 40
1
 40
1
 40
1
 10
200.548226
 20
873.463517
 30
0.0
 10
197.917099
 20
871.944435
 30
0.0
 10
196.296257
 20
869.137055
 30
0.0
 10
196.296257
 20
866.098890
 30
0.0
  0
SPLINE
  5
18d
100
AcDbEntity
  8
0
 62
7
100
AcDbSpline
 70
8
 71
3
 72
8
 73
4
 74
0
 40
0
 40
0
 40
0
 40
0
 40
1
 40
1
 40
1
 40
1
 10
196.296257
 20
866.098890
 30
0.0
 10
196.296257
 20
863.060725
 30
0.0
 10
197.917099
 20
860.253345
 30
0.0
 10
200.548226
 20
858.734263
 30
0.0
  0
SPLINE
  5
18e
100
AcDbEntity
  8
0
 62
7
100
AcDbSpline
 70
8
 71
3
 72
8
 73
4
 74
0
 40
0
 40
0
 40
0
 40
0
 40
1
 40
1
 40
1
 40
1
 10
200.548226
 20
858.734263
 30
0.0
 10
203.179354
 20
857.215180
 30
0.0
 10
206.421038
 20
857.215180
 30
0.0
 10
209.052166
 20
858.734263
 30
0.0
  0
SPLINE
  5
18f
100
AcDbEntity
  8
0
 62
7
100
AcDbSpline
 70
8
 71
3
 72
8
 73
4
 74
0
 40
0
 40
0
 40
0
 40
0
 40
1
 40
1
 40
1
 40
1
 10
209.052166
 20
858.734263
 30
0.0
 10
211.683293
 20
860.253345
 30
0.0
 10
213.304135
 20
863.060725
 30
0.0
 10
213.304135
 20
866.098890
 30
0.0
  0
LWPOLYLINE
  5
190
100
AcDbEntity
  8
0
 62
7
100
AcDbPolyline
 90
1
 70
1
 10
213.304135
 20
562.285875
 30
0.0
  0
SPLINE
  5
191
100
AcDbEntity
  8
0
 62
7
100
AcDbSpline
 70
8
 71
3
 72
8
 73
4
 74
0
 40
0
 40
0
 40
0
 40
0
 40
1
 40
1
 40
1
 40
1
 10
326.689960
 20
562.285875
 30
0.0
 10
326.689960
 20
565.324040
 30
0.0
 10
325.069118
 20
568.131420
 30
0.0
 10
322.437990
 20
569.650502
 30
0.0
  0
SPLINE
  5
192
100
AcDbEntity
  8
0
 62
7
100
AcDbSpline
 70
8
 71
3
 72
8
 73
4
 74
0
 40
0
 40
0
 40
0
 40
0
 40
1
 40
1
 40
1
 40
1
 10
322.437990
 20
569.650502
 30
0.0
 10
319.806863
 20
571.169584
 30
0.0
 10
316.565179
 20
571.169584
 30
0.0
 10
313.934052
 20
569.650502
 30
0.0
  0
SPLINE
  5
193
100
AcDbEntity
  8
0
 62
7
100
AcDbSpline
 70
8
 71
3
 72
8
 73
4
 74
0
 40
0
 40
0
 40
0
 40
0
 40
1
 40
1
 40
1
 40
1
 10
313.934052
 20
569.650502
 30
0.0
 10
311.302924
 20
568.131420
 30
0.0
 10
309.682082
 20
565.324040
 30
0.0
 10
309.682082
 20
562.285875
 30
0.0
  0
SPLINE
  5
194
100
AcDbEntity
  8
0
 62
7
100
AcDbSpline
 70
8
 71
3
 72
8
 73
4
 74
0
 40
0
 40
0
 40
0
 40
0
 40
1
 40
1
 40
1
 40
1
 10
309.682082
 20
562.285875
 30
0.0
 10
309.682082
 20
559.247710
 30
0.0
 10
311.302924
 20
556.440330
 30
0.0
 10
313.934052
 20
554.921248
 30
0.0
  0
SPLINE
  5
195
100
AcDbEntity
  8
0
 62
7
100
AcDbSpline
 70
8
 71
3
 72
8
 73
4
 74
0
 40
0
 40
0
 40
0
 40
0
 40
1
 40
1
 40
1
 40
1
 10
313.934052
 20
554.921248
 30
0.0
 10
316.565179
 20
553.402166
 30
0.0
 10
319.806863
 20
553.402166
 30
0.0
 10
322.437990
 20
554.921248
 30
0.0
  0
SPLINE
  5
196
100
AcDbEntity
  8
0
 62
7
100
AcDbSpline
 70
8
 71
3
 72
8
 73
4
 74
0
 40
0
 40
0
 40
0
 40
0
 40
1
 40
1
 40
1
 40
1
 10
322.437990
 20
554.921248
 30
0.0
 10
325.069118
 20
556.440330
 30
0.0
 10
326.689960
 20
559.247710
 30
0.0
 10
326.689960
 20
562.285875
 30
0.0
  0
LWPOLYLINE
  5
197
100
AcDbEntity
  8
0
 62
7
100
AcDbPolyline
 90
1
 70
1
 10
213.304135
 20
866.098890
 30
0.0
  0
SPLINE
  5
198
100
AcDbEntity
  8
0
 62
7
100
AcDbSpline
 70
8
 71
3
 72
8
 73
4
 74
0
 40
0
 40
0
 40
0
 40
0
 40
1
 40
1
 40
1
 40
1
 10
326.689960
 20
866.098890
 30
0.0
 10
326.689960
 20
869.137055
 30
0.0
 10
325.069118
 20
871.944435
 30
0.0
 10
322.437990
 20
873.463517
 30
0.0
  0
SPLINE
  5
199
100
AcDbEntity
  8
0
 62
7
100
AcDbSpline
 70
8
 71
3
 72
8
 73
4
 74
0
 40
0
 40
0
 40
0
 40
0
 40
1
 40
1
 40
1
 40
1
 10
322.437990
 20
873.463517
 30
0.0
 10
319.806863
 20
874.982599
 30
0.0
 10
316.565179
 20
874.982599
 30
0.0
 10
313.934052
 20
873.463517
 30
0.0
  0
SPLINE
  5
19a
100
AcDbEntity
  8
0
 62
7
100
AcDbSpline
 70
8
 71
3
 72
8
 73
4
 74
0
 40
0
 40
0
 40
0
 40
0
 40
1
 40
1
 40
1
 40
1
 10
313.934052
 20
873.463517
 30
0.0
 10
311.302924
 20
871.944435
 30
0.0
 10
309.682082
 20
869.137055
 30
0.0
 10
309.682082
 20
866.098890
 30
0.0
  0
SPLINE
  5
19b
100
AcDbEntity
  8
0
 62
7
100
AcDbSpline
 70
8
 71
3
 72
8
 73
4
 74
0
 40
0
 40
0
 40
0
 40
0
 40
1
 40
1
 40
1
 40
1
 10
309.682082
 20
866.098890
 30
0.0
 10
309.682082
 20
863.060725
 30
0.0
 10
311.302924
 20
860.253345
 30
0.0
 10
313.934052
 20
858.734263
 30
0.0
  0
SPLINE
  5
19c
100
AcDbEntity
  8
0
 62
7
100
AcDbSpline
 70
8
 71
3
 72
8
 73
4
 74
0
 40
0
 40
0
 40
0
 40
0
 40
1
 40
1
 40
1
 40
1
 10
313.934052
 20
858.734263
 30
0.0
 10
316.565179
 20
857.215181
 30
0.0
 10
319.806863
 20
857.215181
 30
0.0
 10
322.437990
 20
858.734263
 30
0.0
  0
SPLINE
  5
19d
100
AcDbEntity
  8
0
 62
7
100
AcDbSpline
 70
8
 71
3
 72
8
 73
4
 74
0
 40
0
 40
0
 40
0
 40
0
 40
1
 40
1
 40
1
 40
1
 10
322.437990
 20
858.734263
 30
0.0
 10
325.069118
 20
860.253345
 30
0.0
 10
326.689960
 20
863.060725
 30
0.0
 10
326.689960
 20
866.098890
 30
0.0
  0
LWPOLYLINE
  5
19e
100
AcDbEntity
  8
0
 62
7
100
AcDbPolyline
 90
1
 70
1
 10
326.689960
 20
562.285875
 30
0.0
  0
SPLINE
  5
19f
100
AcDbEntity
  8
0
 62
7
100
AcDbSpline
 70
8
 71
3
 72
8
 73
4
 74
0
 40
0
 40
0
 40
0
 40
0
 40
1
 40
1
 40
1
 40
1
 10
326.689960
 20
448.900013
 30
0.0
 10
326.689960
 20
451.938177
 30
0.0
 10
325.069118
 20
454.745557
 30
0.0
 10
322.437990
 20
456.264639
 30
0.0
  0
SPLINE
  5
1a0
100
AcDbEntity
  8
0
 62
7
100
AcDbSpline
 70
8
 71
3
 72
8
 73
4
 74
0
 40
0
 40
0
 40
0
 40
0
 40
1
 40
1
 40
1
 40
1
 10
322.437990
 20
456.264639
 30
0.0
 10
319.806863
 20
457.783722
 30
0.0
 10
316.565179
 20
457.783722
 30
0.0
 10
313.934052
 20
456.264639
 30
0.0
  0
SPLINE
  5
1a1
100
AcDbEntity
  8
0
 62
7
100
AcDbSpline
 70
8
 71
3
 72
8
 73
4
 74
0
 40
0
 40
0
 40
0
 40
0
 40
1
 40
1
 40
1
 40
1
 10
313.934052
 20
456.264639
 30
0.0
 10
311.302924
 20
454.745557
 30
0.0
 10
309.682082
 20
451.938177
 30
0.0
 10
309.682082
 20
448.900013
 30
0.0
  0
SPLINE
  5
1a2
100
AcDbEntity
  8
0
 62
7
100
AcDbSpline
 70
8
 71
3
 72
8
 73
4
 74
0
 40
0
 40
0
 40
0
 40
0
 40
1
 40
1
 40
1
 40
1
 10
309.682082
 20
448.900013
 30
0.0
 10
309.682082
 20
445.861848
 30
0.0
 10
311.302924
 20
443.054468
 30
0.0
 10
313.934052
 20
441.535386
 30
0.0
  0
SPLINE
  5
1a3
100
AcDbEntity
  8
0
 62
7
100
AcDbSpline
 70
8
 71
3
 72
8
 73
4
 74
0
 40
0
 40
0
 40
0
 40
0
 40
1
 40
1
 40
1
 40
1
 10
313.934052
 20
441.535386
 30
0.0
 10
316.565179
 20
440.016303
 30
0.0
 10
319.806863
 20
440.016303
 30
0.0
 10
322.437990
 20
441.535386
 30
0.0
  0
SPLINE
  5
1a4
100
AcDbEntity
  8
0
 62
7
100
AcDbSpline
 70
8
 71
3
 72
8
 73
4
 74
0
 40
0
 40
0
 40
0
 40
0
 40
1
 40
1
 40
1
 40
1
 10
322.437990
 20
441.535386
 30
0.0
 10
325.069118
 20
443.054468
 30
0.0
 10
326.689960
 20
445.861848
 30
0.0
 10
326.689960
 20
448.900013
 30
0.0
  0
LWPOLYLINE
  5
1a5
100
AcDbEntity
  8
0
 62
7
100
AcDbPolyline
 90
1
 70
1
 10
326.689960
 20
866.098890
 30
0.0
  0
SPLINE
  5
1a6
100
AcDbEntity
  8
0
 62
7
100
AcDbSpline
 70
8
 71
3
 72
8
 73
4
 74
0
 40
0
 40
0
 40
0
 40
0
 40
1
 40
1
 40
1
 40
1
 10
213.304135
 20
448.900013
 30
0.0
 10
213.304135
 20
451.938177
 30
0.0
 10
211.683293
 20
454.745557
 30
0.0
 10
209.052166
 20
456.264640
 30
0.0
  0
SPLINE
  5
1a7
100
AcDbEntity
  8
0
 62
7
100
AcDbSpline
 70
8
 71
3
 72
8
 73
4
 74
0
 40
0
 40
0
 40
0
 40
0
 40
1
 40
1
 40
1
 40
1
 10
209.052166
 20
456.264640
 30
0.0
 10
206.421038
 20
457.783722
 30
0.0
 10
203.179354
 20
457.783722
 30
0.0
 10
200.548226
 20
456.264640
 30
0.0
  0
SPLINE
  5
1a8
100
AcDbEntity
  8
0
 62
7
100
AcDbSpline
 70
8
 71
3
 72
8
 73
4
 74
0
 40
0
 40
0
 40
0
 40
0
 40
1
 40
1
 40
1
 40
1
 10
200.548226
 20
456.264640
 30
0.0
 10
197.917099
 20
454.745557
 30
0.0
 10
196.296257
 20
451.938177
 30
0.0
 10
196.296257
 20
448.900013
 30
0.0
  0
SPLINE
  5
1a9
100
AcDbEntity
  8
0
 62
7
100
AcDbSpline
 70
8
 71
3
 72
8
 73
4
 74
0
 40
0
 40
0
 40
0
 40
0
 40
1
 40
1
 40
1
 40
1
 10
196.296257
 20
448.900013
 30
0.0
 10
196.296257
 20
445.861848
 30
0.0
 10
197.917099
 20
443.054468
 30
0.0
 10
200.548226
 20
441.535385
 30
0.0
  0
SPLINE
  5
1aa
100
AcDbEntity
  8
0
 62
7
100
AcDbSpline
 70
8
 71
3
 72
8
 73
4
 74
0
 40
0
 40
0
 40
0
 40
0
 40
1
 40
1
 40
1
 40
1
 10
200.548226
 20
441.535385
 30
0.0
 10
203.179354
 20
440.016303
 30
0.0
 10
206.421038
 20
440.016303
 30
0.0
 10
209.052166
 20
441.535385
 30
0.0
  0
SPLINE
  5
1ab
100
AcDbEntity
  8
0
 62
7
100
AcDbSpline
 70
8
 71
3
 72
8
 73
4
 74
0
 40
0
 40
0
 40
0
 40
0
 40
1
 40
1
 40
1
 40
1
 10
209.052166
 20
441.535385
 30
0.0
 10
211.683293
 20
443.054468
 30
0.0
 10
213.304135
 20
445.861848
 30
0.0
 10
213.304135
 20
448.900013
 30
0.0
  0
LWPOLYLINE
  5
1ac
100
AcDbEntity
  8
0
 62
7
100
AcDbPolyline
 90
1
 70
1
 10
326.689960
 20
448.900013
 30
0.0
  0
SPLINE
  5
1ad
100
AcDbEntity
  8
0
 62
7
100
AcDbSpline
 70
8
 71
3
 72
8
 73
4
 74
0
 40
0
 40
0
 40
0
 40
0
 40
1
 40
1
 40
1
 40
1
 10
326.689960
 20
979.484722
 30
0.0
 10
326.689960
 20
982.522887
 30
0.0
 10
325.069118
 20
985.330267
 30
0.0
 10
322.437990
 20
986.849349
 30
0.0
  0
SPLINE
  5
1ae
100
AcDbEntity
  8
0
 62
7
100
AcDbSpline
 70
8
 71
3
 72
8
 73
4
 74
0
 40
0
 40
0
 40
0
 40
0
 40
1
 40
1
 40
1
 40
1
 10
322.437990
 20
986.849349
 30
0.0
 10
319.806863
 20
988.368432
 30
0.0
 10
316.565179
 20
988.368432
 30
0.0
 10
313.934052
 20
986.849349
 30
0.0
  0
SPLINE
  5
1af
100
AcDbEntity
  8
0
 62
7
100
AcDbSpline
 70
8
 71
3
 72
8
 73
4
 74
0
 40
0
 40
0
 40
0
 40
0
 40
1
 40
1
 40
1
 40
1
 10
313.934052
 20
986.849349
 30
0.0
 10
311.302924
 20
985.330267
 30
0.0
 10
309.682082
 20
982.522887
 30
0.0
 10
309.682082
 20
979.484722
 30
0.0
  0
SPLINE
  5
1b0
100
AcDbEntity
  8
0
 62
7
100
AcDbSpline
 70
8
 71
3
 72
8
 73
4
 74
0
 40
0
 40
0
 40
0
 40
0
 40
1
 40
1
 40
1
 40
1
 10
309.682082
 20
979.484722
 30
0.0
 10
309.682082
 20
976.446558
 30
0.0
 10
311.302924
 20
973.639178
 30
0.0
 10
313.934052
 20
972.120096
 30
0.0
  0
SPLINE
  5
1b1
100
AcDbEntity
  8
0
 62
7
100
AcDbSpline
 70
8
 71
3
 72
8
 73
4
 74
0
 40
0
 40
0
 40
0
 40
0
 40
1
 40
1
 40
1
 40
1
 10
313.934052
 20
972.120096
 30
0.0
 10
316.565179
 20
970.601013
 30
0.0
 10
319.806863
 20
970.601013
 30
0.0
 10
322.437990
 20
972.120096
 30
0.0
  0
SPLINE
  5
1b2
100
AcDbEntity
  8
0
 62
7
100
AcDbSpline
 70
8
 71
3
 72
8
 73
4
 74
0
 40
0
 40
0
 40
0
 40
0
 40
1
 40
1
 40
1
 40
1
 10
322.437990
 20
972.120096
 30
0.0
 10
325.069118
 20
973.639178
 30
0.0
 10
326.689960
 20
976.446558
 30
0.0
 10
326.689960
 20
979.484722
 30
0.0
  0
LWPOLYLINE
  5
1b3
100
AcDbEntity
  8
0
 62
7
100
AcDbPolyline
 90
1
 70
1
 10
213.304135
 20
448.900013
 30
0.0
  0
SPLINE
  5
1b4
100
AcDbEntity
  8
0
 62
7
100
AcDbSpline
 70
8
 71
3
 72
8
 73
4
 74
0
 40
0
 40
0
 40
0
 40
0
 40
1
 40
1
 40
1
 40
1
 10
213.304135
 20
979.484722
 30
0.0
 10
213.304135
 20
982.522887
 30
0.0
 10
211.683293
 20
985.330267
 30
0.0
 10
209.052166
 20
986.849350
 30
0.0
  0
SPLINE
  5
1b5
100
AcDbEntity
  8
0
 62
7
100
AcDbSpline
 70
8
 71
3
 72
8
 73
4
 74
0
 40
0
 40
0
 40
0
 40
0
 40
1
 40
1
 40
1
 40
1
 10
209.052166
 20
986.849350
 30
0.0
 10
206.421038
 20
988.368432
 30
0.0
 10
203.179354
 20
988.368432
 30
0.0
 10
200.548226
 20
986.849350
 30
0.0
  0
SPLINE
  5
1b6
100
AcDbEntity
  8
0
 62
7
100
AcDbSpline
 70
8
 71
3
 72
8
 73
4
 74
0
 40
0
 40
0
 40
0
 40
0
 40
1
 40
1
 40
1
 40
1
 10
200.548226
 20
986.849350
 30
0.0
 10
197.917099
 20
985.330267
 30
0.0
 10
196.296257
 20
982.522887
 30
0.0
 10
196.296257
 20
979.484722
 30
0.0
  0
SPLINE
  5
1b7
100
AcDbEntity
  8
0
 62
7
100
AcDbSpline
 70
8
 71
3
 72
8
 73
4
 74
0
 40
0
 40
0
 40
0
 40
0
 40
1
 40
1
 40
1
 40
1
 10
196.296257
 20
979.484722
 30
0.0
 10
196.296257
 20
976.446558
 30
0.0
 10
197.917099
 20
973.639178
 30
0.0
 10
200.548226
 20
972.120095
 30
0.0
  0
SPLINE
  5
1b8
100
AcDbEntity
  8
0
 62
7
100
AcDbSpline
 70
8
 71
3
 72
8
 73
4
 74
0
 40
0
 40
0
 40
0
 40
0
 40
1
 40
1
 40
1
 40
1
 10
200.548226
 20
972.120095
 30
0.0
 10
203.179354
 20
970.601013
 30
0.0
 10
206.421038
 20
970.601013
 30
0.0
 10
209.052166
 20
972.120095
 30
0.0
  0
SPLINE
  5
1b9
100
AcDbEntity
  8
0
 62
7
100
AcDbSpline
 70
8
 71
3
 72
8
 73
4
 74
0
 40
0
 40
0
 40
0
 40
0
 40
1
 40
1
 40
1
 40
1
 10
209.052166
 20
972.120095
 30
0.0
 10
211.683293
 20
973.639178
 30
0.0
 10
213.304135
 20
976.446558
 30
0.0
 10
213.304135
 20
979.484722
 30
0.0
  0
LWPOLYLINE
  5
1ba
100
AcDbEntity
  8
0
 62
7
100
AcDbPolyline
 90
1
 70
1
 10
326.689960
 20
979.484722
 30
0.0
  0
LWPOLYLINE
  5
1bb
100
AcDbEntity
  8
0
 62
7
100
AcDbPolyline
 90
1
 70
1
 10
213.304135
 20
979.484722
 30
0.0
  0
LWPOLYLINE
  5
1bc
100
AcDbEntity
  8
0
 62
7
100
AcDbPolyline
 90
4
 70
1
 10
302.082152
 20
505.592962
 30
0.0
 10
261.493112
 20
546.182002
 30
0.0
 10
220.904065
 20
505.592962
 30
0.0
 10
261.493112
 20
465.003915
 30
0.0
  0
LWPOLYLINE
  5
1bd
100
AcDbEntity
  8
0
 62
7
100
AcDbPolyline
 90
4
 70
1
 10
261.493112
 20
882.202762
 30
0.0
 10
302.082152
 20
922.791802
 30
0.0
 10
261.493112
 20
963.380850
 30
0.0
 10
220.904065
 20
922.791802
 30
0.0
  0
LWPOLYLINE
  5
1be
100
AcDbEntity
  8
0
 62
7
100
AcDbPolyline
 90
6
 70
1
 10
516.611222
 20
1007.831175
 30
0.0
 10
516.611222
 20
312.516712
 30
0.0
 10
516.611222
 20
6.375037
 30
0.0
 10
6.375000
 20
6.375037
 30
0.0
 10
6.375000
 20
1007.831175
 30
0.0
 10
196.296257
 20
1007.831175
 30
0.0
  0
LWPOLYLINE
  5
1bf
100
AcDbEntity
  8
0
 62
7
100
AcDbPolyline
 90
2
 70
0
 10
261.493112
 20
546.182002
 30
0.0
 10
261.493112
 20
465.003915
 30
0.0
  0
LWPOLYLINE
  5
1c0
100
AcDbEntity
  8
0
 62
7
100
AcDbPolyline
 90
2
 70
0
 10
220.904065
 20
505.592962
 30
0.0
 10
302.082152
 20
505.592962
 30
0.0
  0
LWPOLYLINE
  5
1c1
100
AcDbEntity
  8
0
 62
7
100
AcDbPolyline
 90
2
 70
0
 10
261.493112
 20
963.380850
 30
0.0
 10
261.493112
 20
882.202762
 30
0.0
  0
LWPOLYLINE
  5
1c2
100
AcDbEntity
  8
0
 62
7
100
AcDbPolyline
 90
2
 70
0
 10
220.904065
 20
922.791802
 30
0.0
 10
302.082152
 20
922.791802
 30
0.0
  0
LWPOLYLINE
  5
1c3
100
AcDbEntity
  8
0
 62
7
100
AcDbPolyline
 90
4
 70
1
 10
204.800200
 20
979.484722
 30
0.0
 10
204.800200
 20
448.900013
 30
0.0
 10
318.186025
 20
448.900013
 30
0.0
 10
318.186025
 20
979.484722
 30
0.0
  0
LWPOLYLINE
  5
1c4
100
AcDbEntity
  8
0
 62
7
100
AcDbPolyline
 90
2
 70
0
 10
204.800200
 20
866.098890
 30
0.0
 10
318.186025
 20
866.098890
 30
0.0
  0
LWPOLYLINE
  5
1c5
100
AcDbEntity
  8
0
 62
7
100
AcDbPolyline
 90
2
 70
0
 10
204.800200
 20
562.285875
 30
0.0
 10
318.186025
 20
562.285875
 30
0.0
  0
LWPOLYLINE
  5
1c6
100
AcDbEntity
  8
0
 62
7
100
AcDbPolyline
 90
2
 70
0
 10
204.800200
 20
979.484722
 30
0.0
 10
204.800200
 20
987.988657
 30
0.0
  0
LWPOLYLINE
  5
1c7
100
AcDbEntity
  8
0
 62
7
100
AcDbPolyline
 90
2
 70
0
 10
204.800200
 20
979.484722
 30
0.0
 10
196.296257
 20
979.484722
 30
0.0
  0
LWPOLYLINE
  5
1c8
100
AcDbEntity
  8
0
 62
7
100
AcDbPolyline
 90
2
 70
0
 10
318.186025
 20
979.484722
 30
0.0
 10
318.186025
 20
987.988657
 30
0.0
  0
LWPOLYLINE
  5
1c9
100
AcDbEntity
  8
0
 62
7
100
AcDbPolyline
 90
2
 70
0
 10
318.186025
 20
979.484722
 30
0.0
 10
326.689960
 20
979.484722
 30
0.0
  0
LWPOLYLINE
  5
1ca
100
AcDbEntity
  8
0
 62
7
100
AcDbPolyline
 90
2
 70
0
 10
318.186025
 20
866.098890
 30
0.0
 10
326.689960
 20
866.098890
 30
0.0
  0
LWPOLYLINE
  5
1cb
100
AcDbEntity
  8
0
 62
7
100
AcDbPolyline
 90
2
 70
0
 10
204.800200
 20
866.098890
 30
0.0
 10
196.296257
 20
866.098890
 30
0.0
  0
LWPOLYLINE
  5
1cc
100
AcDbEntity
  8
0
 62
7
100
AcDbPolyline
 90
2
 70
0
 10
204.800200
 20
562.285875
 30
0.0
 10
196.296257
 20
562.285875
 30
0.0
  0
LWPOLYLINE
  5
1cd
100
AcDbEntity
  8
0
 62
7
100
AcDbPolyline
 90
2
 70
0
 10
318.186025
 20
562.285875
 30
0.0
 10
326.689960
 20
562.285875
 30
0.0
  0
LWPOLYLINE
  5
1ce
100
AcDbEntity
  8
0
 62
7
100
AcDbPolyline
 90
2
 70
0
 10
318.186025
 20
448.900013
 30
0.0
 10
326.689960
 20
448.900013
 30
0.0
  0
LWPOLYLINE
  5
1cf
100
AcDbEntity
  8
0
 62
7
100
AcDbPolyline
 90
2
 70
0
 10
318.186025
 20
448.900013
 30
0.0
 10
318.186025
 20
440.396138
 30
0.0
  0
LWPOLYLINE
  5
1d0
100
AcDbEntity
  8
0
 62
7
100
AcDbPolyline
 90
2
 70
0
 10
204.800200
 20
448.900013
 30
0.0
 10
196.296257
 20
448.900013
 30
0.0
  0
LWPOLYLINE
  5
1d1
100
AcDbEntity
  8
0
 62
7
100
AcDbPolyline
 90
2
 70
0
 10
204.800200
 20
448.900013
 30
0.0
 10
204.800200
 20
440.396138
 30
0.0
  0
LWPOLYLINE
  5
1d2
100
AcDbEntity
  8
0
 62
7
100
AcDbPolyline
 90
2
 70
0
 10
65.902562
 20
287.004937
 30
0.0
 10
457.083662
 20
287.004937
 30
0.0
  0
LWPOLYLINE
  5
1d3
100
AcDbEntity
  8
0
 62
7
100
AcDbPolyline
 90
2
 70
0
 10
445.745080
 20
298.343512
 30
0.0
 10
445.745080
 20
26.217562
 30
0.0
  0
LWPOLYLINE
  5
1d4
100
AcDbEntity
  8
0
 62
7
100
AcDbPolyline
 90
2
 70
0
 10
457.083662
 20
37.556137
 30
0.0
 10
65.902562
 20
37.556137
 30
0.0
  0
LWPOLYLINE
  5
1d5
100
AcDbEntity
  8
0
 62
7
100
AcDbPolyline
 90
2
 70
0
 10
77.241145
 20
26.217562
 30
0.0
 10
77.241145
 20
298.343512
 30
0.0
  0
LWPOLYLINE
  5
1d6
100
AcDbEntity
  8
0
 62
7
100
AcDbPolyline
 90
2
 70
0
 10
261.493112
 20
298.343512
 30
0.0
 10
261.493112
 20
26.217562
 30
0.0
  0
ENDSEC
  0
SECTION
  2
OBJECTS
  0
DICTIONARY
  5
C
330
0
100
AcDbDictionary
  3
ACAD_GROUP
350
D
  3
ACAD_MLINESTYLE
350
17
  0
DICTIONARY
  5
D
330
C
100
AcDbDictionary
  0
DICTIONARY
  5
1A
330
C
100
AcDbDictionary
  0
DICTIONARY
  5
17
330
C
100
AcDbDictionary
  3
STANDARD
350
18
  0
DICTIONARY
  5
19
330
C
100
AcDbDictionary
  0
ENDSEC
  0
EOF
